<?xml version="1.0" encoding="UTF-8"?>
<svg height="20.0" width="519.5135135135135" xmlns="http://www.w3.org/2000/svg">
 <g>
  <rect x="10.0" y="-215.0" width="13.513513513513514" height="225.0" style="fill:cyan;opacity:0.3;"/>
  <text x="10.0" y="10.0" transform="matrix(6.123233995736766E-17,-1.0,1.0,6.123233995736766E-17,0.0,20.0)" style="font-size:1.0000000000000013px;">Limonene</text>
  <rect x="23.0" y="-201.0" width="13.513513513513514" height="211.0" style="fill:cyan;opacity:0.3;"/>
  <text x="23.0" y="10.0" transform="matrix(6.123233995736766E-17,-1.0,1.0,6.123233995736766E-17,12.999999999999998,33.0)" style="font-size:1.0000000000000013px;">Linalool</text>
  <rect x="37.0" y="-148.0" width="13.513513513513514" height="158.0" style="fill:cyan;opacity:0.3;"/>
  <text x="37.0" y="10.0" transform="matrix(6.123233995736766E-17,-1.0,1.0,6.123233995736766E-17,27.0,47.0)" style="font-size:1.0000000000000013px;">Thymol</text>
  <rect x="50.0" y="-115.0" width="13.513513513513514" height="125.0" style="fill:cyan;opacity:0.3;"/>
  <text x="50.0" y="10.0" transform="matrix(6.123233995736766E-17,-1.0,1.0,6.123233995736766E-17,40.0,60.0)" style="font-size:1.0000000000000013px;">Carvacrol</text>
  <rect x="64.0" y="-109.0" width="13.513513513513514" height="119.0" style="fill:cyan;opacity:0.3;"/>
  <text x="64.0" y="10.0" transform="matrix(6.123233995736766E-17,-1.0,1.0,6.123233995736766E-17,54.0,74.0)" style="font-size:1.0000000000000013px;">Menthol</text>
  <rect x="77.0" y="-109.0" width="13.513513513513514" height="119.0" style="fill:cyan;opacity:0.3;"/>
  <text x="77.0" y="10.0" transform="matrix(6.123233995736766E-17,-1.0,1.0,6.123233995736766E-17,67.0,87.0)" style="font-size:1.0000000000000013px;">Terpinen-4-ol</text>
  <rect x="91.0" y="-82.0" width="13.513513513513514" height="92.0" style="fill:cyan;opacity:0.3;"/>
  <text x="91.0" y="10.0" transform="matrix(6.123233995736766E-17,-1.0,1.0,6.123233995736766E-17,81.0,101.0)" style="font-size:1.0000000000000013px;">Borneol</text>
  <rect x="104.0" y="-82.0" width="13.513513513513514" height="92.0" style="fill:cyan;opacity:0.3;"/>
  <text x="104.0" y="10.0" transform="matrix(6.123233995736766E-17,-1.0,1.0,6.123233995736766E-17,94.0,114.0)" style="font-size:1.0000000000000013px;">Camphor</text>
  <rect x="118.0" y="-69.0" width="13.513513513513514" height="79.0" style="fill:cyan;opacity:0.3;"/>
  <text x="118.0" y="10.0" transform="matrix(6.123233995736766E-17,-1.0,1.0,6.123233995736766E-17,108.0,128.0)" style="font-size:1.0000000000000013px;">Sabinene</text>
  <rect x="131.0" y="-62.0" width="13.513513513513514" height="72.0" style="fill:cyan;opacity:0.3;"/>
  <text x="131.0" y="10.0" transform="matrix(6.123233995736766E-17,-1.0,1.0,6.123233995736766E-17,120.99999999999999,141.0)" style="font-size:1.0000000000000013px;">Eucalyptol</text>
  <rect x="145.0" y="-62.0" width="13.513513513513514" height="72.0" style="fill:cyan;opacity:0.3;"/>
  <text x="145.0" y="10.0" transform="matrix(6.123233995736766E-17,-1.0,1.0,6.123233995736766E-17,135.0,155.0)" style="font-size:1.0000000000000013px;">Citral</text>
  <rect x="158.0" y="-56.0" width="13.513513513513514" height="66.0" style="fill:cyan;opacity:0.3;"/>
  <text x="158.0" y="10.0" transform="matrix(6.123233995736766E-17,-1.0,1.0,6.123233995736766E-17,148.0,168.0)" style="font-size:1.0000000000000013px;">Linalyl acetate</text>
  <rect x="172.0" y="-49.0" width="13.513513513513514" height="59.0" style="fill:cyan;opacity:0.3;"/>
  <text x="172.0" y="10.0" transform="matrix(6.123233995736766E-17,-1.0,1.0,6.123233995736766E-17,162.0,182.0)" style="font-size:1.0000000000000013px;">Camphene</text>
  <rect x="185.0" y="-49.0" width="13.513513513513514" height="59.0" style="fill:cyan;opacity:0.3;"/>
  <text x="185.0" y="10.0" transform="matrix(6.123233995736766E-17,-1.0,1.0,6.123233995736766E-17,175.0,195.0)" style="font-size:1.0000000000000013px;">Geraniol</text>
  <rect x="199.0" y="-42.0" width="13.513513513513514" height="52.0" style="fill:cyan;opacity:0.3;"/>
  <text x="199.0" y="10.0" transform="matrix(6.123233995736766E-17,-1.0,1.0,6.123233995736766E-17,189.0,209.0)" style="font-size:1.0000000000000013px;">Myrcene</text>
  <rect x="212.0" y="-36.0" width="13.513513513513514" height="46.0" style="fill:cyan;opacity:0.3;"/>
  <text x="212.0" y="10.0" transform="matrix(6.123233995736766E-17,-1.0,1.0,6.123233995736766E-17,202.0,222.0)" style="font-size:1.0000000000000013px;">Menthone</text>
  <rect x="226.0" y="-36.0" width="13.513513513513514" height="46.0" style="fill:cyan;opacity:0.3;"/>
  <text x="226.0" y="10.0" transform="matrix(6.123233995736766E-17,-1.0,1.0,6.123233995736766E-17,216.0,236.0)" style="font-size:1.0000000000000013px;">Citronellol</text>
  <rect x="239.0" y="-23.0" width="13.513513513513514" height="33.0" style="fill:cyan;opacity:0.3;"/>
  <text x="239.0" y="10.0" transform="matrix(6.123233995736766E-17,-1.0,1.0,6.123233995736766E-17,229.0,249.0)" style="font-size:1.0000000000000013px;">Citronellal</text>
  <rect x="253.0" y="-23.0" width="13.513513513513514" height="33.0" style="fill:cyan;opacity:0.3;"/>
  <text x="253.0" y="10.0" transform="matrix(6.123233995736766E-17,-1.0,1.0,6.123233995736766E-17,242.99999999999997,263.0)" style="font-size:1.0000000000000013px;">Carvone</text>
  <rect x="266.0" y="-16.0" width="13.513513513513514" height="26.0" style="fill:cyan;opacity:0.3;"/>
  <text x="266.0" y="10.0" transform="matrix(6.123233995736766E-17,-1.0,1.0,6.123233995736766E-17,255.99999999999997,276.0)" style="font-size:1.0000000000000013px;">Pulegone</text>
  <rect x="280.0" y="-9.0" width="13.513513513513514" height="19.0" style="fill:cyan;opacity:0.3;"/>
  <text x="280.0" y="10.0" transform="matrix(6.123233995736766E-17,-1.0,1.0,6.123233995736766E-17,270.0,290.0)" style="font-size:1.0000000000000013px;">Perilla ketone</text>
  <rect x="293.0" y="-9.0" width="13.513513513513514" height="19.0" style="fill:cyan;opacity:0.3;"/>
  <text x="293.0" y="10.0" transform="matrix(6.123233995736766E-17,-1.0,1.0,6.123233995736766E-17,283.0,303.0)" style="font-size:1.0000000000000013px;">Fenchone</text>
  <rect x="307.0" y="-9.0" width="13.513513513513514" height="19.0" style="fill:cyan;opacity:0.3;"/>
  <text x="307.0" y="10.0" transform="matrix(6.123233995736766E-17,-1.0,1.0,6.123233995736766E-17,297.0,317.0)" style="font-size:1.0000000000000013px;">Nerol</text>
  <rect x="320.0" y="-9.0" width="13.513513513513514" height="19.0" style="fill:cyan;opacity:0.3;"/>
  <text x="320.0" y="10.0" transform="matrix(6.123233995736766E-17,-1.0,1.0,6.123233995736766E-17,310.0,330.0)" style="font-size:1.0000000000000013px;">Thymoquinone</text>
  <rect x="334.0" y="-9.0" width="13.513513513513514" height="19.0" style="fill:cyan;opacity:0.3;"/>
  <text x="334.0" y="10.0" transform="matrix(6.123233995736766E-17,-1.0,1.0,6.123233995736766E-17,324.0,344.0)" style="font-size:1.0000000000000013px;">Pinene</text>
  <rect x="347.0" y="-3.0" width="13.513513513513514" height="13.0" style="fill:cyan;opacity:0.3;"/>
  <text x="347.0" y="10.0" transform="matrix(6.123233995736766E-17,-1.0,1.0,6.123233995736766E-17,337.0,357.0)" style="font-size:1.0000000000000013px;">Cuminaldehyde</text>
  <rect x="361.0" y="-3.0" width="13.513513513513514" height="13.0" style="fill:cyan;opacity:0.3;"/>
  <text x="361.0" y="10.0" transform="matrix(6.123233995736766E-17,-1.0,1.0,6.123233995736766E-17,351.0,371.0)" style="font-size:1.0000000000000013px;">Safranal</text>
  <rect x="374.0" y="-3.0" width="13.513513513513514" height="13.0" style="fill:cyan;opacity:0.3;"/>
  <text x="374.0" y="10.0" transform="matrix(6.123233995736766E-17,-1.0,1.0,6.123233995736766E-17,364.0,384.0)" style="font-size:1.0000000000000013px;">Thujone</text>
  <rect x="388.0" y="4.0" width="13.513513513513514" height="6.0" style="fill:cyan;opacity:0.3;"/>
  <text x="388.0" y="10.0" transform="matrix(6.123233995736766E-17,-1.0,1.0,6.123233995736766E-17,378.0,398.0)" style="font-size:1.0000000000000013px;">Perillene</text>
  <rect x="401.0" y="4.0" width="13.513513513513514" height="6.0" style="fill:cyan;opacity:0.3;"/>
  <text x="401.0" y="10.0" transform="matrix(6.123233995736766E-17,-1.0,1.0,6.123233995736766E-17,391.0,411.0)" style="font-size:1.0000000000000013px;">Terpinene</text>
  <rect x="415.0" y="4.0" width="13.513513513513514" height="6.0" style="fill:cyan;opacity:0.3;"/>
  <text x="415.0" y="10.0" transform="matrix(6.123233995736766E-17,-1.0,1.0,6.123233995736766E-17,405.0,425.0)" style="font-size:1.0000000000000013px;">Hydroxycitronel</text>
  <rect x="428.0" y="4.0" width="13.513513513513514" height="6.0" style="fill:cyan;opacity:0.3;"/>
  <text x="428.0" y="10.0" transform="matrix(6.123233995736766E-17,-1.0,1.0,6.123233995736766E-17,418.0,438.0)" style="font-size:1.0000000000000013px;">Geranyl pyropho</text>
  <rect x="442.0" y="4.0" width="13.513513513513514" height="6.0" style="fill:cyan;opacity:0.3;"/>
  <text x="442.0" y="10.0" transform="matrix(6.123233995736766E-17,-1.0,1.0,6.123233995736766E-17,432.0,452.0)" style="font-size:1.0000000000000013px;">Piperitone</text>
  <rect x="455.0" y="4.0" width="13.513513513513514" height="6.0" style="fill:cyan;opacity:0.3;"/>
  <text x="455.0" y="10.0" transform="matrix(6.123233995736766E-17,-1.0,1.0,6.123233995736766E-17,445.0,465.0)" style="font-size:1.0000000000000013px;">Perillaldehyde</text>
  <rect x="469.0" y="4.0" width="13.513513513513514" height="6.0" style="fill:cyan;opacity:0.3;"/>
  <text x="469.0" y="10.0" transform="matrix(6.123233995736766E-17,-1.0,1.0,6.123233995736766E-17,459.0,479.0)" style="font-size:1.0000000000000013px;">Ascaridole</text>
  <rect x="482.0" y="4.0" width="13.513513513513514" height="6.0" style="fill:cyan;opacity:0.3;"/>
  <text x="482.0" y="10.0" transform="matrix(6.123233995736766E-17,-1.0,1.0,6.123233995736766E-17,471.99999999999994,492.0)" style="font-size:1.0000000000000013px;">Picrocrocin</text>
  <rect x="496.0" y="4.0" width="13.513513513513514" height="6.0" style="fill:cyan;opacity:0.3;"/>
  <text x="496.0" y="10.0" transform="matrix(6.123233995736766E-17,-1.0,1.0,6.123233995736766E-17,485.99999999999994,506.0)" style="font-size:1.0000000000000013px;">Thujene</text>
 </g>
</svg>
