<?xml version="1.0" encoding="UTF-8"?>
<svg height="20.0" width="519.2592592592592" xmlns="http://www.w3.org/2000/svg">
 <g>
  <rect x="10.0" y="-215.0" width="9.25925925925926" height="225.0" style="fill:cyan;opacity:0.3;"/>
  <text x="10.0" y="10.0" transform="matrix(6.123233995736766E-17,-1.0,1.0,6.123233995736766E-17,0.0,20.0)" style="font-size:1.0000000000000013px;">Ageratum conyzo</text>
  <rect x="19.0" y="-166.0" width="9.25925925925926" height="176.0" style="fill:cyan;opacity:0.3;"/>
  <text x="19.0" y="10.0" transform="matrix(6.123233995736766E-17,-1.0,1.0,6.123233995736766E-17,8.999999999999998,29.0)" style="font-size:1.0000000000000013px;">Lantana camara</text>
  <rect x="28.0" y="-102.0" width="9.25925925925926" height="112.0" style="fill:cyan;opacity:0.3;"/>
  <text x="28.0" y="10.0" transform="matrix(6.123233995736766E-17,-1.0,1.0,6.123233995736766E-17,18.0,38.0)" style="font-size:1.0000000000000013px;">Origanum vulgar</text>
  <rect x="37.0" y="-86.0" width="9.25925925925926" height="96.0" style="fill:cyan;opacity:0.3;"/>
  <text x="37.0" y="10.0" transform="matrix(6.123233995736766E-17,-1.0,1.0,6.123233995736766E-17,27.0,47.0)" style="font-size:1.0000000000000013px;">Escherichia col</text>
  <rect x="47.0" y="-86.0" width="9.25925925925926" height="96.0" style="fill:cyan;opacity:0.3;"/>
  <text x="47.0" y="10.0" transform="matrix(6.123233995736766E-17,-1.0,1.0,6.123233995736766E-17,37.0,57.0)" style="font-size:1.0000000000000013px;">Lantana radula</text>
  <rect x="56.0" y="-70.0" width="9.25925925925926" height="80.0" style="fill:cyan;opacity:0.3;"/>
  <text x="56.0" y="10.0" transform="matrix(6.123233995736766E-17,-1.0,1.0,6.123233995736766E-17,46.0,66.0)" style="font-size:1.0000000000000013px;">Hyptis spiciger</text>
  <rect x="65.0" y="-70.0" width="9.25925925925926" height="80.0" style="fill:cyan;opacity:0.3;"/>
  <text x="65.0" y="10.0" transform="matrix(6.123233995736766E-17,-1.0,1.0,6.123233995736766E-17,55.0,75.0)" style="font-size:1.0000000000000013px;">Schistosoma man</text>
  <rect x="74.0" y="-70.0" width="9.25925925925926" height="80.0" style="fill:cyan;opacity:0.3;"/>
  <text x="74.0" y="10.0" transform="matrix(6.123233995736766E-17,-1.0,1.0,6.123233995736766E-17,63.99999999999999,84.0)" style="font-size:1.0000000000000013px;">Corynespora cas</text>
  <rect x="84.0" y="-70.0" width="9.25925925925926" height="80.0" style="fill:cyan;opacity:0.3;"/>
  <text x="84.0" y="10.0" transform="matrix(6.123233995736766E-17,-1.0,1.0,6.123233995736766E-17,74.0,94.0)" style="font-size:1.0000000000000013px;">Satureja montan</text>
  <rect x="93.0" y="-70.0" width="9.25925925925926" height="80.0" style="fill:cyan;opacity:0.3;"/>
  <text x="93.0" y="10.0" transform="matrix(6.123233995736766E-17,-1.0,1.0,6.123233995736766E-17,83.0,103.0)" style="font-size:1.0000000000000013px;">Ocimum basilicu</text>
  <rect x="102.0" y="-70.0" width="9.25925925925926" height="80.0" style="fill:cyan;opacity:0.3;"/>
  <text x="102.0" y="10.0" transform="matrix(6.123233995736766E-17,-1.0,1.0,6.123233995736766E-17,92.0,112.0)" style="font-size:1.0000000000000013px;">Satureja visian</text>
  <rect x="111.0" y="-54.0" width="9.25925925925926" height="64.0" style="fill:cyan;opacity:0.3;"/>
  <text x="111.0" y="10.0" transform="matrix(6.123233995736766E-17,-1.0,1.0,6.123233995736766E-17,101.0,121.0)" style="font-size:1.0000000000000013px;">Eucalyptus cama</text>
  <rect x="121.0" y="-54.0" width="9.25925925925926" height="64.0" style="fill:cyan;opacity:0.3;"/>
  <text x="121.0" y="10.0" transform="matrix(6.123233995736766E-17,-1.0,1.0,6.123233995736766E-17,111.0,131.0)" style="font-size:1.0000000000000013px;">Lippia multiflo</text>
  <rect x="130.0" y="-54.0" width="9.25925925925926" height="64.0" style="fill:cyan;opacity:0.3;"/>
  <text x="130.0" y="10.0" transform="matrix(6.123233995736766E-17,-1.0,1.0,6.123233995736766E-17,120.0,140.0)" style="font-size:1.0000000000000013px;">Ocimum american</text>
  <rect x="139.0" y="-54.0" width="9.25925925925926" height="64.0" style="fill:cyan;opacity:0.3;"/>
  <text x="139.0" y="10.0" transform="matrix(6.123233995736766E-17,-1.0,1.0,6.123233995736766E-17,129.0,149.0)" style="font-size:1.0000000000000013px;">Zingiber offici</text>
  <rect x="148.0" y="-54.0" width="9.25925925925926" height="64.0" style="fill:cyan;opacity:0.3;"/>
  <text x="148.0" y="10.0" transform="matrix(6.123233995736766E-17,-1.0,1.0,6.123233995736766E-17,138.0,158.0)" style="font-size:1.0000000000000013px;">Satureja subspi</text>
  <rect x="158.0" y="-54.0" width="9.25925925925926" height="64.0" style="fill:cyan;opacity:0.3;"/>
  <text x="158.0" y="10.0" transform="matrix(6.123233995736766E-17,-1.0,1.0,6.123233995736766E-17,148.0,168.0)" style="font-size:1.0000000000000013px;">Satureja cuneif</text>
  <rect x="167.0" y="-54.0" width="9.25925925925926" height="64.0" style="fill:cyan;opacity:0.3;"/>
  <text x="167.0" y="10.0" transform="matrix(6.123233995736766E-17,-1.0,1.0,6.123233995736766E-17,157.0,177.0)" style="font-size:1.0000000000000013px;">Ageratum flavus</text>
  <rect x="176.0" y="-38.0" width="9.25925925925926" height="48.0" style="fill:cyan;opacity:0.3;"/>
  <text x="176.0" y="10.0" transform="matrix(6.123233995736766E-17,-1.0,1.0,6.123233995736766E-17,166.0,186.0)" style="font-size:1.0000000000000013px;">Staphylococcus </text>
  <rect x="185.0" y="-38.0" width="9.25925925925926" height="48.0" style="fill:cyan;opacity:0.3;"/>
  <text x="185.0" y="10.0" transform="matrix(6.123233995736766E-17,-1.0,1.0,6.123233995736766E-17,175.0,195.0)" style="font-size:1.0000000000000013px;">Satureja horten</text>
  <rect x="195.0" y="-22.0" width="9.25925925925926" height="32.0" style="fill:cyan;opacity:0.3;"/>
  <text x="195.0" y="10.0" transform="matrix(6.123233995736766E-17,-1.0,1.0,6.123233995736766E-17,185.0,205.0)" style="font-size:1.0000000000000013px;">Aspergillus fla</text>
  <rect x="204.0" y="-22.0" width="9.25925925925926" height="32.0" style="fill:cyan;opacity:0.3;"/>
  <text x="204.0" y="10.0" transform="matrix(6.123233995736766E-17,-1.0,1.0,6.123233995736766E-17,194.0,214.0)" style="font-size:1.0000000000000013px;">S. montana</text>
  <rect x="213.0" y="-22.0" width="9.25925925925926" height="32.0" style="fill:cyan;opacity:0.3;"/>
  <text x="213.0" y="10.0" transform="matrix(6.123233995736766E-17,-1.0,1.0,6.123233995736766E-17,203.0,223.0)" style="font-size:1.0000000000000013px;">S. cuneifolia</text>
  <rect x="222.0" y="-6.0" width="9.25925925925926" height="16.0" style="fill:cyan;opacity:0.3;"/>
  <text x="222.0" y="10.0" transform="matrix(6.123233995736766E-17,-1.0,1.0,6.123233995736766E-17,212.0,232.0)" style="font-size:1.0000000000000013px;">Lenzites betuli</text>
  <rect x="232.0" y="-6.0" width="9.25925925925926" height="16.0" style="fill:cyan;opacity:0.3;"/>
  <text x="232.0" y="10.0" transform="matrix(6.123233995736766E-17,-1.0,1.0,6.123233995736766E-17,222.0,242.0)" style="font-size:1.0000000000000013px;">Ocimum gratissi</text>
  <rect x="241.0" y="-6.0" width="9.25925925925926" height="16.0" style="fill:cyan;opacity:0.3;"/>
  <text x="241.0" y="10.0" transform="matrix(6.123233995736766E-17,-1.0,1.0,6.123233995736766E-17,231.0,251.0)" style="font-size:1.0000000000000013px;">Melaleuca leuco</text>
  <rect x="250.0" y="-6.0" width="9.25925925925926" height="16.0" style="fill:cyan;opacity:0.3;"/>
  <text x="250.0" y="10.0" transform="matrix(6.123233995736766E-17,-1.0,1.0,6.123233995736766E-17,239.99999999999997,260.0)" style="font-size:1.0000000000000013px;">S. hortensis</text>
  <rect x="260.0" y="-6.0" width="9.25925925925926" height="16.0" style="fill:cyan;opacity:0.3;"/>
  <text x="260.0" y="10.0" transform="matrix(6.123233995736766E-17,-1.0,1.0,6.123233995736766E-17,249.99999999999997,270.0)" style="font-size:1.0000000000000013px;">Satureja cunefo</text>
  <rect x="269.0" y="-6.0" width="9.25925925925926" height="16.0" style="fill:cyan;opacity:0.3;"/>
  <text x="269.0" y="10.0" transform="matrix(6.123233995736766E-17,-1.0,1.0,6.123233995736766E-17,259.0,279.0)" style="font-size:1.0000000000000013px;">Ageratum calmad</text>
  <rect x="278.0" y="-6.0" width="9.25925925925926" height="16.0" style="fill:cyan;opacity:0.3;"/>
  <text x="278.0" y="10.0" transform="matrix(6.123233995736766E-17,-1.0,1.0,6.123233995736766E-17,268.0,288.0)" style="font-size:1.0000000000000013px;">Fusarium solani</text>
  <rect x="287.0" y="-6.0" width="9.25925925925926" height="16.0" style="fill:cyan;opacity:0.3;"/>
  <text x="287.0" y="10.0" transform="matrix(6.123233995736766E-17,-1.0,1.0,6.123233995736766E-17,277.0,297.0)" style="font-size:1.0000000000000013px;">Oreganum vulgar</text>
  <rect x="297.0" y="-6.0" width="9.25925925925926" height="16.0" style="fill:cyan;opacity:0.3;"/>
  <text x="297.0" y="10.0" transform="matrix(6.123233995736766E-17,-1.0,1.0,6.123233995736766E-17,287.0,307.0)" style="font-size:1.0000000000000013px;">Fusarium gramin</text>
  <rect x="306.0" y="-6.0" width="9.25925925925926" height="16.0" style="fill:cyan;opacity:0.3;"/>
  <text x="306.0" y="10.0" transform="matrix(6.123233995736766E-17,-1.0,1.0,6.123233995736766E-17,296.0,316.0)" style="font-size:1.0000000000000013px;">Lantana achyran</text>
  <rect x="315.0" y="-6.0" width="9.25925925925926" height="16.0" style="fill:cyan;opacity:0.3;"/>
  <text x="315.0" y="10.0" transform="matrix(6.123233995736766E-17,-1.0,1.0,6.123233995736766E-17,305.0,325.0)" style="font-size:1.0000000000000013px;">Staphylococcus </text>
  <rect x="324.0" y="-6.0" width="9.25925925925926" height="16.0" style="fill:cyan;opacity:0.3;"/>
  <text x="324.0" y="10.0" transform="matrix(6.123233995736766E-17,-1.0,1.0,6.123233995736766E-17,314.0,334.0)" style="font-size:1.0000000000000013px;">Curcuma longa</text>
  <rect x="334.0" y="-6.0" width="9.25925925925926" height="16.0" style="fill:cyan;opacity:0.3;"/>
  <text x="334.0" y="10.0" transform="matrix(6.123233995736766E-17,-1.0,1.0,6.123233995736766E-17,324.0,344.0)" style="font-size:1.0000000000000013px;">Aedes aegypti</text>
  <rect x="343.0" y="-6.0" width="9.25925925925926" height="16.0" style="fill:cyan;opacity:0.3;"/>
  <text x="343.0" y="10.0" transform="matrix(6.123233995736766E-17,-1.0,1.0,6.123233995736766E-17,333.0,353.0)" style="font-size:1.0000000000000013px;">O. vulgare</text>
  <rect x="352.0" y="-6.0" width="9.25925925925926" height="16.0" style="fill:cyan;opacity:0.3;"/>
  <text x="352.0" y="10.0" transform="matrix(6.123233995736766E-17,-1.0,1.0,6.123233995736766E-17,342.0,362.0)" style="font-size:1.0000000000000013px;">Satureja isophy</text>
  <rect x="361.0" y="-6.0" width="9.25925925925926" height="16.0" style="fill:cyan;opacity:0.3;"/>
  <text x="361.0" y="10.0" transform="matrix(6.123233995736766E-17,-1.0,1.0,6.123233995736766E-17,351.0,371.0)" style="font-size:1.0000000000000013px;">Candida albican</text>
  <rect x="371.0" y="-6.0" width="9.25925925925926" height="16.0" style="fill:cyan;opacity:0.3;"/>
  <text x="371.0" y="10.0" transform="matrix(6.123233995736766E-17,-1.0,1.0,6.123233995736766E-17,361.0,381.0)" style="font-size:1.0000000000000013px;">Vibrio cholerae</text>
  <rect x="380.0" y="-6.0" width="9.25925925925926" height="16.0" style="fill:cyan;opacity:0.3;"/>
  <text x="380.0" y="10.0" transform="matrix(6.123233995736766E-17,-1.0,1.0,6.123233995736766E-17,370.0,390.0)" style="font-size:1.0000000000000013px;">Corynespora cas</text>
  <rect x="389.0" y="-6.0" width="9.25925925925926" height="16.0" style="fill:cyan;opacity:0.3;"/>
  <text x="389.0" y="10.0" transform="matrix(6.123233995736766E-17,-1.0,1.0,6.123233995736766E-17,379.0,399.0)" style="font-size:1.0000000000000013px;">Satureja obovat</text>
  <rect x="398.0" y="-6.0" width="9.25925925925926" height="16.0" style="fill:cyan;opacity:0.3;"/>
  <text x="398.0" y="10.0" transform="matrix(6.123233995736766E-17,-1.0,1.0,6.123233995736766E-17,388.0,408.0)" style="font-size:1.0000000000000013px;">S. subspicata</text>
  <rect x="408.0" y="-6.0" width="9.25925925925926" height="16.0" style="fill:cyan;opacity:0.3;"/>
  <text x="408.0" y="10.0" transform="matrix(6.123233995736766E-17,-1.0,1.0,6.123233995736766E-17,398.0,418.0)" style="font-size:1.0000000000000013px;">S. visianii</text>
  <rect x="417.0" y="-6.0" width="9.25925925925926" height="16.0" style="fill:cyan;opacity:0.3;"/>
  <text x="417.0" y="10.0" transform="matrix(6.123233995736766E-17,-1.0,1.0,6.123233995736766E-17,407.0,427.0)" style="font-size:1.0000000000000013px;">Peumus boldus</text>
  <rect x="426.0" y="-6.0" width="9.25925925925926" height="16.0" style="fill:cyan;opacity:0.3;"/>
  <text x="426.0" y="10.0" transform="matrix(6.123233995736766E-17,-1.0,1.0,6.123233995736766E-17,416.0,436.0)" style="font-size:1.0000000000000013px;">Biomphalaria gl</text>
  <rect x="435.0" y="-6.0" width="9.25925925925926" height="16.0" style="fill:cyan;opacity:0.3;"/>
  <text x="435.0" y="10.0" transform="matrix(6.123233995736766E-17,-1.0,1.0,6.123233995736766E-17,425.0,445.0)" style="font-size:1.0000000000000013px;">Piper tubercula</text>
  <rect x="445.0" y="-6.0" width="9.25925925925926" height="16.0" style="fill:cyan;opacity:0.3;"/>
  <text x="445.0" y="10.0" transform="matrix(6.123233995736766E-17,-1.0,1.0,6.123233995736766E-17,435.0,455.0)" style="font-size:1.0000000000000013px;">Leishmania amaz</text>
  <rect x="454.0" y="-6.0" width="9.25925925925926" height="16.0" style="fill:cyan;opacity:0.3;"/>
  <text x="454.0" y="10.0" transform="matrix(6.123233995736766E-17,-1.0,1.0,6.123233995736766E-17,444.0,464.0)" style="font-size:1.0000000000000013px;">Satureja pilosa</text>
  <rect x="463.0" y="-6.0" width="9.25925925925926" height="16.0" style="fill:cyan;opacity:0.3;"/>
  <text x="463.0" y="10.0" transform="matrix(6.123233995736766E-17,-1.0,1.0,6.123233995736766E-17,453.0,473.0)" style="font-size:1.0000000000000013px;">Laetiporus sulp</text>
  <rect x="472.0" y="-6.0" width="9.25925925925926" height="16.0" style="fill:cyan;opacity:0.3;"/>
  <text x="472.0" y="10.0" transform="matrix(6.123233995736766E-17,-1.0,1.0,6.123233995736766E-17,462.0,482.0)" style="font-size:1.0000000000000013px;">Ageratum conizo</text>
  <rect x="482.0" y="-6.0" width="9.25925925925926" height="16.0" style="fill:cyan;opacity:0.3;"/>
  <text x="482.0" y="10.0" transform="matrix(6.123233995736766E-17,-1.0,1.0,6.123233995736766E-17,471.99999999999994,492.0)" style="font-size:1.0000000000000013px;">Aspergillus nig</text>
  <rect x="491.0" y="-6.0" width="9.25925925925926" height="16.0" style="fill:cyan;opacity:0.3;"/>
  <text x="491.0" y="10.0" transform="matrix(6.123233995736766E-17,-1.0,1.0,6.123233995736766E-17,480.99999999999994,501.0)" style="font-size:1.0000000000000013px;">Ageratum nomius</text>
  <rect x="500.0" y="-6.0" width="9.25925925925926" height="16.0" style="fill:cyan;opacity:0.3;"/>
  <text x="500.0" y="10.0" transform="matrix(6.123233995736766E-17,-1.0,1.0,6.123233995736766E-17,489.99999999999994,510.0)" style="font-size:1.0000000000000013px;">Trametes versic</text>
 </g>
</svg>
