<?xml version="1.0" encoding="UTF-8"?>
<svg height="20.0" width="519.4117647058824" xmlns="http://www.w3.org/2000/svg">
 <g>
  <rect x="10.0" y="-215.0" width="29.41176470588235" height="225.0" style="fill:cyan;opacity:0.3;"/>
  <text x="10.0" y="10.0" transform="matrix(6.123233995736766E-17,-1.0,1.0,6.123233995736766E-17,0.0,20.0)" style="font-size:1.0000000000000013px;">Brazil</text>
  <rect x="39.0" y="-118.0" width="29.41176470588235" height="128.0" style="fill:cyan;opacity:0.3;"/>
  <text x="39.0" y="10.0" transform="matrix(6.123233995736766E-17,-1.0,1.0,6.123233995736766E-17,29.0,49.0)" style="font-size:1.0000000000000013px;">Burkina Faso</text>
  <rect x="68.0" y="-118.0" width="29.41176470588235" height="128.0" style="fill:cyan;opacity:0.3;"/>
  <text x="68.0" y="10.0" transform="matrix(6.123233995736766E-17,-1.0,1.0,6.123233995736766E-17,58.0,78.0)" style="font-size:1.0000000000000013px;">France</text>
  <rect x="98.0" y="-86.0" width="29.41176470588235" height="96.0" style="fill:cyan;opacity:0.3;"/>
  <text x="98.0" y="10.0" transform="matrix(6.123233995736766E-17,-1.0,1.0,6.123233995736766E-17,88.0,108.0)" style="font-size:1.0000000000000013px;">Burkina Faso.</text>
  <rect x="127.0" y="-86.0" width="29.41176470588235" height="96.0" style="fill:cyan;opacity:0.3;"/>
  <text x="127.0" y="10.0" transform="matrix(6.123233995736766E-17,-1.0,1.0,6.123233995736766E-17,117.0,137.0)" style="font-size:1.0000000000000013px;">China</text>
  <rect x="157.0" y="-54.0" width="29.41176470588235" height="64.0" style="fill:cyan;opacity:0.3;"/>
  <text x="157.0" y="10.0" transform="matrix(6.123233995736766E-17,-1.0,1.0,6.123233995736766E-17,147.0,167.0)" style="font-size:1.0000000000000013px;">Madagascar</text>
  <rect x="186.0" y="-54.0" width="29.41176470588235" height="64.0" style="fill:cyan;opacity:0.3;"/>
  <text x="186.0" y="10.0" transform="matrix(6.123233995736766E-17,-1.0,1.0,6.123233995736766E-17,176.0,196.0)" style="font-size:1.0000000000000013px;">Croatia</text>
  <rect x="215.0" y="-22.0" width="29.41176470588235" height="32.0" style="fill:cyan;opacity:0.3;"/>
  <text x="215.0" y="10.0" transform="matrix(6.123233995736766E-17,-1.0,1.0,6.123233995736766E-17,205.0,225.0)" style="font-size:1.0000000000000013px;">Cameroon</text>
  <rect x="245.0" y="-22.0" width="29.41176470588235" height="32.0" style="fill:cyan;opacity:0.3;"/>
  <text x="245.0" y="10.0" transform="matrix(6.123233995736766E-17,-1.0,1.0,6.123233995736766E-17,235.0,255.0)" style="font-size:1.0000000000000013px;">Sri Lanka</text>
  <rect x="274.0" y="-22.0" width="29.41176470588235" height="32.0" style="fill:cyan;opacity:0.3;"/>
  <text x="274.0" y="10.0" transform="matrix(6.123233995736766E-17,-1.0,1.0,6.123233995736766E-17,264.0,284.0)" style="font-size:1.0000000000000013px;">Bosnia and Herz</text>
  <rect x="304.0" y="-22.0" width="29.41176470588235" height="32.0" style="fill:cyan;opacity:0.3;"/>
  <text x="304.0" y="10.0" transform="matrix(6.123233995736766E-17,-1.0,1.0,6.123233995736766E-17,294.0,314.0)" style="font-size:1.0000000000000013px;">Congo</text>
  <rect x="333.0" y="-22.0" width="29.41176470588235" height="32.0" style="fill:cyan;opacity:0.3;"/>
  <text x="333.0" y="10.0" transform="matrix(6.123233995736766E-17,-1.0,1.0,6.123233995736766E-17,323.0,343.0)" style="font-size:1.0000000000000013px;">India</text>
  <rect x="362.0" y="-22.0" width="29.41176470588235" height="32.0" style="fill:cyan;opacity:0.3;"/>
  <text x="362.0" y="10.0" transform="matrix(6.123233995736766E-17,-1.0,1.0,6.123233995736766E-17,352.0,372.0)" style="font-size:1.0000000000000013px;">Burkina Faso,</text>
  <rect x="392.0" y="-22.0" width="29.41176470588235" height="32.0" style="fill:cyan;opacity:0.3;"/>
  <text x="392.0" y="10.0" transform="matrix(6.123233995736766E-17,-1.0,1.0,6.123233995736766E-17,382.0,402.0)" style="font-size:1.0000000000000013px;">Turkey</text>
  <rect x="421.0" y="-22.0" width="29.41176470588235" height="32.0" style="fill:cyan;opacity:0.3;"/>
  <text x="421.0" y="10.0" transform="matrix(6.123233995736766E-17,-1.0,1.0,6.123233995736766E-17,411.0,431.0)" style="font-size:1.0000000000000013px;">Mozambique</text>
  <rect x="451.0" y="-22.0" width="29.41176470588235" height="32.0" style="fill:cyan;opacity:0.3;"/>
  <text x="451.0" y="10.0" transform="matrix(6.123233995736766E-17,-1.0,1.0,6.123233995736766E-17,441.0,461.0)" style="font-size:1.0000000000000013px;">Italy</text>
  <rect x="480.0" y="-22.0" width="29.41176470588235" height="32.0" style="fill:cyan;opacity:0.3;"/>
  <text x="480.0" y="10.0" transform="matrix(6.123233995736766E-17,-1.0,1.0,6.123233995736766E-17,469.99999999999994,490.0)" style="font-size:1.0000000000000013px;">Mexico</text>
 </g>
</svg>
