<?xml version="1.0" encoding="UTF-8"?>
<svg height="20.0" width="519.8461538461538" xmlns="http://www.w3.org/2000/svg">
 <g>
  <rect x="10.0" y="-215.0" width="3.8461538461538463" height="225.0" style="fill:cyan;opacity:0.3;"/>
  <text x="10.0" y="10.0" transform="matrix(6.123233995736766E-17,-1.0,1.0,6.123233995736766E-17,0.0,20.0)" style="font-size:1.0000000000000013px;">India</text>
  <rect x="13.0" y="-172.0" width="3.8461538461538463" height="182.0" style="fill:cyan;opacity:0.3;"/>
  <text x="13.0" y="10.0" transform="matrix(6.123233995736766E-17,-1.0,1.0,6.123233995736766E-17,3.0,23.0)" style="font-size:1.0000000000000013px;">China</text>
  <rect x="17.0" y="-136.0" width="3.8461538461538463" height="146.0" style="fill:cyan;opacity:0.3;"/>
  <text x="17.0" y="10.0" transform="matrix(6.123233995736766E-17,-1.0,1.0,6.123233995736766E-17,6.999999999999998,27.0)" style="font-size:1.0000000000000013px;">United States</text>
  <rect x="21.0" y="-93.0" width="3.8461538461538463" height="103.0" style="fill:cyan;opacity:0.3;"/>
  <text x="21.0" y="10.0" transform="matrix(6.123233995736766E-17,-1.0,1.0,6.123233995736766E-17,10.999999999999998,31.0)" style="font-size:1.0000000000000013px;">Germany</text>
  <rect x="25.0" y="-81.0" width="3.8461538461538463" height="91.0" style="fill:cyan;opacity:0.3;"/>
  <text x="25.0" y="10.0" transform="matrix(6.123233995736766E-17,-1.0,1.0,6.123233995736766E-17,14.999999999999998,35.0)" style="font-size:1.0000000000000013px;">Brazil</text>
  <rect x="29.0" y="-78.0" width="3.8461538461538463" height="88.0" style="fill:cyan;opacity:0.3;"/>
  <text x="29.0" y="10.0" transform="matrix(6.123233995736766E-17,-1.0,1.0,6.123233995736766E-17,19.0,39.0)" style="font-size:1.0000000000000013px;">Japan</text>
  <rect x="33.0" y="-73.0" width="3.8461538461538463" height="83.0" style="fill:cyan;opacity:0.3;"/>
  <text x="33.0" y="10.0" transform="matrix(6.123233995736766E-17,-1.0,1.0,6.123233995736766E-17,23.0,43.0)" style="font-size:1.0000000000000013px;">France</text>
  <rect x="36.0" y="-63.0" width="3.8461538461538463" height="73.0" style="fill:cyan;opacity:0.3;"/>
  <text x="36.0" y="10.0" transform="matrix(6.123233995736766E-17,-1.0,1.0,6.123233995736766E-17,26.0,46.0)" style="font-size:1.0000000000000013px;">Italy</text>
  <rect x="40.0" y="-55.0" width="3.8461538461538463" height="65.0" style="fill:cyan;opacity:0.3;"/>
  <text x="40.0" y="10.0" transform="matrix(6.123233995736766E-17,-1.0,1.0,6.123233995736766E-17,30.0,50.0)" style="font-size:1.0000000000000013px;">Switzerland</text>
  <rect x="44.0" y="-55.0" width="3.8461538461538463" height="65.0" style="fill:cyan;opacity:0.3;"/>
  <text x="44.0" y="10.0" transform="matrix(6.123233995736766E-17,-1.0,1.0,6.123233995736766E-17,34.0,54.0)" style="font-size:1.0000000000000013px;">Australia</text>
  <rect x="48.0" y="-43.0" width="3.8461538461538463" height="53.0" style="fill:cyan;opacity:0.3;"/>
  <text x="48.0" y="10.0" transform="matrix(6.123233995736766E-17,-1.0,1.0,6.123233995736766E-17,38.0,58.0)" style="font-size:1.0000000000000013px;">Thailand</text>
  <rect x="52.0" y="-40.0" width="3.8461538461538463" height="50.0" style="fill:cyan;opacity:0.3;"/>
  <text x="52.0" y="10.0" transform="matrix(6.123233995736766E-17,-1.0,1.0,6.123233995736766E-17,42.0,62.0)" style="font-size:1.0000000000000013px;">Netherlands</text>
  <rect x="56.0" y="-38.0" width="3.8461538461538463" height="48.0" style="fill:cyan;opacity:0.3;"/>
  <text x="56.0" y="10.0" transform="matrix(6.123233995736766E-17,-1.0,1.0,6.123233995736766E-17,46.0,66.0)" style="font-size:1.0000000000000013px;">Egypt</text>
  <rect x="60.0" y="-38.0" width="3.8461538461538463" height="48.0" style="fill:cyan;opacity:0.3;"/>
  <text x="60.0" y="10.0" transform="matrix(6.123233995736766E-17,-1.0,1.0,6.123233995736766E-17,50.0,70.0)" style="font-size:1.0000000000000013px;">Pakistan</text>
  <rect x="63.0" y="-35.0" width="3.8461538461538463" height="45.0" style="fill:cyan;opacity:0.3;"/>
  <text x="63.0" y="10.0" transform="matrix(6.123233995736766E-17,-1.0,1.0,6.123233995736766E-17,53.0,73.0)" style="font-size:1.0000000000000013px;">Turkey</text>
  <rect x="67.0" y="-35.0" width="3.8461538461538463" height="45.0" style="fill:cyan;opacity:0.3;"/>
  <text x="67.0" y="10.0" transform="matrix(6.123233995736766E-17,-1.0,1.0,6.123233995736766E-17,57.0,77.0)" style="font-size:1.0000000000000013px;">South Africa</text>
  <rect x="71.0" y="-32.0" width="3.8461538461538463" height="42.0" style="fill:cyan;opacity:0.3;"/>
  <text x="71.0" y="10.0" transform="matrix(6.123233995736766E-17,-1.0,1.0,6.123233995736766E-17,61.0,81.0)" style="font-size:1.0000000000000013px;">United States,</text>
  <rect x="75.0" y="-32.0" width="3.8461538461538463" height="42.0" style="fill:cyan;opacity:0.3;"/>
  <text x="75.0" y="10.0" transform="matrix(6.123233995736766E-17,-1.0,1.0,6.123233995736766E-17,65.0,85.0)" style="font-size:1.0000000000000013px;">Greece</text>
  <rect x="79.0" y="-25.0" width="3.8461538461538463" height="35.0" style="fill:cyan;opacity:0.3;"/>
  <text x="79.0" y="10.0" transform="matrix(6.123233995736766E-17,-1.0,1.0,6.123233995736766E-17,69.0,89.0)" style="font-size:1.0000000000000013px;">Malaysia</text>
  <rect x="83.0" y="-25.0" width="3.8461538461538463" height="35.0" style="fill:cyan;opacity:0.3;"/>
  <text x="83.0" y="10.0" transform="matrix(6.123233995736766E-17,-1.0,1.0,6.123233995736766E-17,73.0,93.0)" style="font-size:1.0000000000000013px;">Bangladesh</text>
  <rect x="86.0" y="-22.0" width="3.8461538461538463" height="32.0" style="fill:cyan;opacity:0.3;"/>
  <text x="86.0" y="10.0" transform="matrix(6.123233995736766E-17,-1.0,1.0,6.123233995736766E-17,76.0,96.0)" style="font-size:1.0000000000000013px;">Nepal</text>
  <rect x="90.0" y="-22.0" width="3.8461538461538463" height="32.0" style="fill:cyan;opacity:0.3;"/>
  <text x="90.0" y="10.0" transform="matrix(6.123233995736766E-17,-1.0,1.0,6.123233995736766E-17,80.0,100.0)" style="font-size:1.0000000000000013px;">Nigeria</text>
  <rect x="94.0" y="-22.0" width="3.8461538461538463" height="32.0" style="fill:cyan;opacity:0.3;"/>
  <text x="94.0" y="10.0" transform="matrix(6.123233995736766E-17,-1.0,1.0,6.123233995736766E-17,84.0,104.0)" style="font-size:1.0000000000000013px;">United Kingdom</text>
  <rect x="98.0" y="-22.0" width="3.8461538461538463" height="32.0" style="fill:cyan;opacity:0.3;"/>
  <text x="98.0" y="10.0" transform="matrix(6.123233995736766E-17,-1.0,1.0,6.123233995736766E-17,88.0,108.0)" style="font-size:1.0000000000000013px;">Saudi Arabia</text>
  <rect x="102.0" y="-20.0" width="3.8461538461538463" height="30.0" style="fill:cyan;opacity:0.3;"/>
  <text x="102.0" y="10.0" transform="matrix(6.123233995736766E-17,-1.0,1.0,6.123233995736766E-17,92.0,112.0)" style="font-size:1.0000000000000013px;">Canada</text>
  <rect x="106.0" y="-20.0" width="3.8461538461538463" height="30.0" style="fill:cyan;opacity:0.3;"/>
  <text x="106.0" y="10.0" transform="matrix(6.123233995736766E-17,-1.0,1.0,6.123233995736766E-17,96.0,116.0)" style="font-size:1.0000000000000013px;">Jordan</text>
  <rect x="110.0" y="-20.0" width="3.8461538461538463" height="30.0" style="fill:cyan;opacity:0.3;"/>
  <text x="110.0" y="10.0" transform="matrix(6.123233995736766E-17,-1.0,1.0,6.123233995736766E-17,100.0,120.0)" style="font-size:1.0000000000000013px;">Indonesia</text>
  <rect x="113.0" y="-17.0" width="3.8461538461538463" height="27.0" style="fill:cyan;opacity:0.3;"/>
  <text x="113.0" y="10.0" transform="matrix(6.123233995736766E-17,-1.0,1.0,6.123233995736766E-17,103.0,123.0)" style="font-size:1.0000000000000013px;">Hong Kong</text>
  <rect x="117.0" y="-17.0" width="3.8461538461538463" height="27.0" style="fill:cyan;opacity:0.3;"/>
  <text x="117.0" y="10.0" transform="matrix(6.123233995736766E-17,-1.0,1.0,6.123233995736766E-17,107.0,127.0)" style="font-size:1.0000000000000013px;">South Africa,</text>
  <rect x="121.0" y="-17.0" width="3.8461538461538463" height="27.0" style="fill:cyan;opacity:0.3;"/>
  <text x="121.0" y="10.0" transform="matrix(6.123233995736766E-17,-1.0,1.0,6.123233995736766E-17,111.0,131.0)" style="font-size:1.0000000000000013px;">Spain</text>
  <rect x="125.0" y="-15.0" width="3.8461538461538463" height="25.0" style="fill:cyan;opacity:0.3;"/>
  <text x="125.0" y="10.0" transform="matrix(6.123233995736766E-17,-1.0,1.0,6.123233995736766E-17,115.0,135.0)" style="font-size:1.0000000000000013px;">Bulgaria</text>
  <rect x="129.0" y="-15.0" width="3.8461538461538463" height="25.0" style="fill:cyan;opacity:0.3;"/>
  <text x="129.0" y="10.0" transform="matrix(6.123233995736766E-17,-1.0,1.0,6.123233995736766E-17,119.0,139.0)" style="font-size:1.0000000000000013px;">Singapore</text>
  <rect x="133.0" y="-12.0" width="3.8461538461538463" height="22.0" style="fill:cyan;opacity:0.3;"/>
  <text x="133.0" y="10.0" transform="matrix(6.123233995736766E-17,-1.0,1.0,6.123233995736766E-17,122.99999999999999,143.0)" style="font-size:1.0000000000000013px;">New Zealand</text>
  <rect x="136.0" y="-12.0" width="3.8461538461538463" height="22.0" style="fill:cyan;opacity:0.3;"/>
  <text x="136.0" y="10.0" transform="matrix(6.123233995736766E-17,-1.0,1.0,6.123233995736766E-17,125.99999999999999,146.0)" style="font-size:1.0000000000000013px;">Mexico</text>
  <rect x="140.0" y="-10.0" width="3.8461538461538463" height="20.0" style="fill:cyan;opacity:0.3;"/>
  <text x="140.0" y="10.0" transform="matrix(6.123233995736766E-17,-1.0,1.0,6.123233995736766E-17,130.0,150.0)" style="font-size:1.0000000000000013px;">Yemen</text>
  <rect x="144.0" y="-10.0" width="3.8461538461538463" height="20.0" style="fill:cyan;opacity:0.3;"/>
  <text x="144.0" y="10.0" transform="matrix(6.123233995736766E-17,-1.0,1.0,6.123233995736766E-17,134.0,154.0)" style="font-size:1.0000000000000013px;">Guinea</text>
  <rect x="148.0" y="-10.0" width="3.8461538461538463" height="20.0" style="fill:cyan;opacity:0.3;"/>
  <text x="148.0" y="10.0" transform="matrix(6.123233995736766E-17,-1.0,1.0,6.123233995736766E-17,138.0,158.0)" style="font-size:1.0000000000000013px;">Serbia</text>
  <rect x="152.0" y="-7.0" width="3.8461538461538463" height="17.0" style="fill:cyan;opacity:0.3;"/>
  <text x="152.0" y="10.0" transform="matrix(6.123233995736766E-17,-1.0,1.0,6.123233995736766E-17,142.0,162.0)" style="font-size:1.0000000000000013px;">United States;</text>
  <rect x="156.0" y="-7.0" width="3.8461538461538463" height="17.0" style="fill:cyan;opacity:0.3;"/>
  <text x="156.0" y="10.0" transform="matrix(6.123233995736766E-17,-1.0,1.0,6.123233995736766E-17,146.0,166.0)" style="font-size:1.0000000000000013px;">Sri Lanka,</text>
  <rect x="160.0" y="-7.0" width="3.8461538461538463" height="17.0" style="fill:cyan;opacity:0.3;"/>
  <text x="160.0" y="10.0" transform="matrix(6.123233995736766E-17,-1.0,1.0,6.123233995736766E-17,150.0,170.0)" style="font-size:1.0000000000000013px;">Lebanon</text>
  <rect x="163.0" y="-7.0" width="3.8461538461538463" height="17.0" style="fill:cyan;opacity:0.3;"/>
  <text x="163.0" y="10.0" transform="matrix(6.123233995736766E-17,-1.0,1.0,6.123233995736766E-17,153.0,173.0)" style="font-size:1.0000000000000013px;">Ethiopia</text>
  <rect x="167.0" y="-7.0" width="3.8461538461538463" height="17.0" style="fill:cyan;opacity:0.3;"/>
  <text x="167.0" y="10.0" transform="matrix(6.123233995736766E-17,-1.0,1.0,6.123233995736766E-17,157.0,177.0)" style="font-size:1.0000000000000013px;">Norway</text>
  <rect x="171.0" y="-7.0" width="3.8461538461538463" height="17.0" style="fill:cyan;opacity:0.3;"/>
  <text x="171.0" y="10.0" transform="matrix(6.123233995736766E-17,-1.0,1.0,6.123233995736766E-17,161.0,181.0)" style="font-size:1.0000000000000013px;">Montenegro</text>
  <rect x="175.0" y="-5.0" width="3.8461538461538463" height="15.0" style="fill:cyan;opacity:0.3;"/>
  <text x="175.0" y="10.0" transform="matrix(6.123233995736766E-17,-1.0,1.0,6.123233995736766E-17,165.0,185.0)" style="font-size:1.0000000000000013px;">Portugal</text>
  <rect x="179.0" y="-5.0" width="3.8461538461538463" height="15.0" style="fill:cyan;opacity:0.3;"/>
  <text x="179.0" y="10.0" transform="matrix(6.123233995736766E-17,-1.0,1.0,6.123233995736766E-17,169.0,189.0)" style="font-size:1.0000000000000013px;">Sweden</text>
  <rect x="183.0" y="-5.0" width="3.8461538461538463" height="15.0" style="fill:cyan;opacity:0.3;"/>
  <text x="183.0" y="10.0" transform="matrix(6.123233995736766E-17,-1.0,1.0,6.123233995736766E-17,173.0,193.0)" style="font-size:1.0000000000000013px;">South Africa.</text>
  <rect x="186.0" y="-5.0" width="3.8461538461538463" height="15.0" style="fill:cyan;opacity:0.3;"/>
  <text x="186.0" y="10.0" transform="matrix(6.123233995736766E-17,-1.0,1.0,6.123233995736766E-17,176.0,196.0)" style="font-size:1.0000000000000013px;">Ireland</text>
  <rect x="190.0" y="-2.0" width="3.8461538461538463" height="12.0" style="fill:cyan;opacity:0.3;"/>
  <text x="190.0" y="10.0" transform="matrix(6.123233995736766E-17,-1.0,1.0,6.123233995736766E-17,180.0,200.0)" style="font-size:1.0000000000000013px;">United States.</text>
  <rect x="194.0" y="-2.0" width="3.8461538461538463" height="12.0" style="fill:cyan;opacity:0.3;"/>
  <text x="194.0" y="10.0" transform="matrix(6.123233995736766E-17,-1.0,1.0,6.123233995736766E-17,184.0,204.0)" style="font-size:1.0000000000000013px;">Morocco</text>
  <rect x="198.0" y="-2.0" width="3.8461538461538463" height="12.0" style="fill:cyan;opacity:0.3;"/>
  <text x="198.0" y="10.0" transform="matrix(6.123233995736766E-17,-1.0,1.0,6.123233995736766E-17,188.0,208.0)" style="font-size:1.0000000000000013px;">Poland</text>
  <rect x="202.0" y="-2.0" width="3.8461538461538463" height="12.0" style="fill:cyan;opacity:0.3;"/>
  <text x="202.0" y="10.0" transform="matrix(6.123233995736766E-17,-1.0,1.0,6.123233995736766E-17,192.0,212.0)" style="font-size:1.0000000000000013px;">Tunisia</text>
  <rect x="206.0" y="-2.0" width="3.8461538461538463" height="12.0" style="fill:cyan;opacity:0.3;"/>
  <text x="206.0" y="10.0" transform="matrix(6.123233995736766E-17,-1.0,1.0,6.123233995736766E-17,196.0,216.0)" style="font-size:1.0000000000000013px;">Czech Republic</text>
  <rect x="210.0" y="-2.0" width="3.8461538461538463" height="12.0" style="fill:cyan;opacity:0.3;"/>
  <text x="210.0" y="10.0" transform="matrix(6.123233995736766E-17,-1.0,1.0,6.123233995736766E-17,200.0,220.0)" style="font-size:1.0000000000000013px;">Austria</text>
  <rect x="213.0" y="-2.0" width="3.8461538461538463" height="12.0" style="fill:cyan;opacity:0.3;"/>
  <text x="213.0" y="10.0" transform="matrix(6.123233995736766E-17,-1.0,1.0,6.123233995736766E-17,203.0,223.0)" style="font-size:1.0000000000000013px;">Luxembourg</text>
  <rect x="217.0" y="0.0" width="3.8461538461538463" height="10.0" style="fill:cyan;opacity:0.3;"/>
  <text x="217.0" y="10.0" transform="matrix(6.123233995736766E-17,-1.0,1.0,6.123233995736766E-17,207.0,227.0)" style="font-size:1.0000000000000013px;">Belgium</text>
  <rect x="221.0" y="0.0" width="3.8461538461538463" height="10.0" style="fill:cyan;opacity:0.3;"/>
  <text x="221.0" y="10.0" transform="matrix(6.123233995736766E-17,-1.0,1.0,6.123233995736766E-17,211.0,231.0)" style="font-size:1.0000000000000013px;">Kenya</text>
  <rect x="225.0" y="0.0" width="3.8461538461538463" height="10.0" style="fill:cyan;opacity:0.3;"/>
  <text x="225.0" y="10.0" transform="matrix(6.123233995736766E-17,-1.0,1.0,6.123233995736766E-17,215.0,235.0)" style="font-size:1.0000000000000013px;">Oman</text>
  <rect x="229.0" y="0.0" width="3.8461538461538463" height="10.0" style="fill:cyan;opacity:0.3;"/>
  <text x="229.0" y="10.0" transform="matrix(6.123233995736766E-17,-1.0,1.0,6.123233995736766E-17,219.0,239.0)" style="font-size:1.0000000000000013px;">Colombia</text>
  <rect x="233.0" y="0.0" width="3.8461538461538463" height="10.0" style="fill:cyan;opacity:0.3;"/>
  <text x="233.0" y="10.0" transform="matrix(6.123233995736766E-17,-1.0,1.0,6.123233995736766E-17,223.0,243.0)" style="font-size:1.0000000000000013px;">Saudi Arabia,</text>
  <rect x="236.0" y="0.0" width="3.8461538461538463" height="10.0" style="fill:cyan;opacity:0.3;"/>
  <text x="236.0" y="10.0" transform="matrix(6.123233995736766E-17,-1.0,1.0,6.123233995736766E-17,226.0,246.0)" style="font-size:1.0000000000000013px;">Lithuania</text>
  <rect x="240.0" y="0.0" width="3.8461538461538463" height="10.0" style="fill:cyan;opacity:0.3;"/>
  <text x="240.0" y="10.0" transform="matrix(6.123233995736766E-17,-1.0,1.0,6.123233995736766E-17,230.0,250.0)" style="font-size:1.0000000000000013px;">Romania</text>
  <rect x="244.0" y="0.0" width="3.8461538461538463" height="10.0" style="fill:cyan;opacity:0.3;"/>
  <text x="244.0" y="10.0" transform="matrix(6.123233995736766E-17,-1.0,1.0,6.123233995736766E-17,234.0,254.0)" style="font-size:1.0000000000000013px;">Niger</text>
  <rect x="248.0" y="0.0" width="3.8461538461538463" height="10.0" style="fill:cyan;opacity:0.3;"/>
  <text x="248.0" y="10.0" transform="matrix(6.123233995736766E-17,-1.0,1.0,6.123233995736766E-17,237.99999999999997,258.0)" style="font-size:1.0000000000000013px;">Philippines</text>
  <rect x="252.0" y="3.0" width="3.8461538461538463" height="7.0" style="fill:cyan;opacity:0.3;"/>
  <text x="252.0" y="10.0" transform="matrix(6.123233995736766E-17,-1.0,1.0,6.123233995736766E-17,241.99999999999997,262.0)" style="font-size:1.0000000000000013px;">Hong Kong,</text>
  <rect x="256.0" y="3.0" width="3.8461538461538463" height="7.0" style="fill:cyan;opacity:0.3;"/>
  <text x="256.0" y="10.0" transform="matrix(6.123233995736766E-17,-1.0,1.0,6.123233995736766E-17,245.99999999999997,266.0)" style="font-size:1.0000000000000013px;">Bahrain</text>
  <rect x="260.0" y="3.0" width="3.8461538461538463" height="7.0" style="fill:cyan;opacity:0.3;"/>
  <text x="260.0" y="10.0" transform="matrix(6.123233995736766E-17,-1.0,1.0,6.123233995736766E-17,249.99999999999997,270.0)" style="font-size:1.0000000000000013px;">Congo</text>
  <rect x="263.0" y="3.0" width="3.8461538461538463" height="7.0" style="fill:cyan;opacity:0.3;"/>
  <text x="263.0" y="10.0" transform="matrix(6.123233995736766E-17,-1.0,1.0,6.123233995736766E-17,252.99999999999997,273.0)" style="font-size:1.0000000000000013px;">Guinea-Bissau</text>
  <rect x="267.0" y="3.0" width="3.8461538461538463" height="7.0" style="fill:cyan;opacity:0.3;"/>
  <text x="267.0" y="10.0" transform="matrix(6.123233995736766E-17,-1.0,1.0,6.123233995736766E-17,257.0,277.0)" style="font-size:1.0000000000000013px;">Finland</text>
  <rect x="271.0" y="3.0" width="3.8461538461538463" height="7.0" style="fill:cyan;opacity:0.3;"/>
  <text x="271.0" y="10.0" transform="matrix(6.123233995736766E-17,-1.0,1.0,6.123233995736766E-17,261.0,281.0)" style="font-size:1.0000000000000013px;">New Zealand,</text>
  <rect x="275.0" y="3.0" width="3.8461538461538463" height="7.0" style="fill:cyan;opacity:0.3;"/>
  <text x="275.0" y="10.0" transform="matrix(6.123233995736766E-17,-1.0,1.0,6.123233995736766E-17,265.0,285.0)" style="font-size:1.0000000000000013px;">Peru</text>
  <rect x="279.0" y="3.0" width="3.8461538461538463" height="7.0" style="fill:cyan;opacity:0.3;"/>
  <text x="279.0" y="10.0" transform="matrix(6.123233995736766E-17,-1.0,1.0,6.123233995736766E-17,269.0,289.0)" style="font-size:1.0000000000000013px;">Sri Lanka</text>
  <rect x="283.0" y="3.0" width="3.8461538461538463" height="7.0" style="fill:cyan;opacity:0.3;"/>
  <text x="283.0" y="10.0" transform="matrix(6.123233995736766E-17,-1.0,1.0,6.123233995736766E-17,273.0,293.0)" style="font-size:1.0000000000000013px;">Cuba</text>
  <rect x="286.0" y="3.0" width="3.8461538461538463" height="7.0" style="fill:cyan;opacity:0.3;"/>
  <text x="286.0" y="10.0" transform="matrix(6.123233995736766E-17,-1.0,1.0,6.123233995736766E-17,276.0,296.0)" style="font-size:1.0000000000000013px;">Israel</text>
  <rect x="290.0" y="3.0" width="3.8461538461538463" height="7.0" style="fill:cyan;opacity:0.3;"/>
  <text x="290.0" y="10.0" transform="matrix(6.123233995736766E-17,-1.0,1.0,6.123233995736766E-17,280.0,300.0)" style="font-size:1.0000000000000013px;">Cameroon</text>
  <rect x="294.0" y="3.0" width="3.8461538461538463" height="7.0" style="fill:cyan;opacity:0.3;"/>
  <text x="294.0" y="10.0" transform="matrix(6.123233995736766E-17,-1.0,1.0,6.123233995736766E-17,284.0,304.0)" style="font-size:1.0000000000000013px;">Algeria</text>
  <rect x="298.0" y="3.0" width="3.8461538461538463" height="7.0" style="fill:cyan;opacity:0.3;"/>
  <text x="298.0" y="10.0" transform="matrix(6.123233995736766E-17,-1.0,1.0,6.123233995736766E-17,288.0,308.0)" style="font-size:1.0000000000000013px;">Hungary</text>
  <rect x="302.0" y="3.0" width="3.8461538461538463" height="7.0" style="fill:cyan;opacity:0.3;"/>
  <text x="302.0" y="10.0" transform="matrix(6.123233995736766E-17,-1.0,1.0,6.123233995736766E-17,292.0,312.0)" style="font-size:1.0000000000000013px;">Saudi Arabia.</text>
  <rect x="306.0" y="3.0" width="3.8461538461538463" height="7.0" style="fill:cyan;opacity:0.3;"/>
  <text x="306.0" y="10.0" transform="matrix(6.123233995736766E-17,-1.0,1.0,6.123233995736766E-17,296.0,316.0)" style="font-size:1.0000000000000013px;">Mauritius</text>
  <rect x="310.0" y="3.0" width="3.8461538461538463" height="7.0" style="fill:cyan;opacity:0.3;"/>
  <text x="310.0" y="10.0" transform="matrix(6.123233995736766E-17,-1.0,1.0,6.123233995736766E-17,300.0,320.0)" style="font-size:1.0000000000000013px;">Bhutan</text>
  <rect x="313.0" y="3.0" width="3.8461538461538463" height="7.0" style="fill:cyan;opacity:0.3;"/>
  <text x="313.0" y="10.0" transform="matrix(6.123233995736766E-17,-1.0,1.0,6.123233995736766E-17,303.0,323.0)" style="font-size:1.0000000000000013px;">Denmark</text>
  <rect x="317.0" y="3.0" width="3.8461538461538463" height="7.0" style="fill:cyan;opacity:0.3;"/>
  <text x="317.0" y="10.0" transform="matrix(6.123233995736766E-17,-1.0,1.0,6.123233995736766E-17,307.0,327.0)" style="font-size:1.0000000000000013px;">Greenland</text>
  <rect x="321.0" y="5.0" width="3.8461538461538463" height="5.0" style="fill:cyan;opacity:0.3;"/>
  <text x="321.0" y="10.0" transform="matrix(6.123233995736766E-17,-1.0,1.0,6.123233995736766E-17,311.0,331.0)" style="font-size:1.0000000000000013px;">Kazakhstan</text>
  <rect x="325.0" y="5.0" width="3.8461538461538463" height="5.0" style="fill:cyan;opacity:0.3;"/>
  <text x="325.0" y="10.0" transform="matrix(6.123233995736766E-17,-1.0,1.0,6.123233995736766E-17,315.0,335.0)" style="font-size:1.0000000000000013px;">Iraq</text>
  <rect x="329.0" y="5.0" width="3.8461538461538463" height="5.0" style="fill:cyan;opacity:0.3;"/>
  <text x="329.0" y="10.0" transform="matrix(6.123233995736766E-17,-1.0,1.0,6.123233995736766E-17,319.0,339.0)" style="font-size:1.0000000000000013px;">Chile</text>
  <rect x="333.0" y="5.0" width="3.8461538461538463" height="5.0" style="fill:cyan;opacity:0.3;"/>
  <text x="333.0" y="10.0" transform="matrix(6.123233995736766E-17,-1.0,1.0,6.123233995736766E-17,323.0,343.0)" style="font-size:1.0000000000000013px;">Argentina</text>
  <rect x="336.0" y="5.0" width="3.8461538461538463" height="5.0" style="fill:cyan;opacity:0.3;"/>
  <text x="336.0" y="10.0" transform="matrix(6.123233995736766E-17,-1.0,1.0,6.123233995736766E-17,326.0,346.0)" style="font-size:1.0000000000000013px;">Ukraine</text>
  <rect x="340.0" y="5.0" width="3.8461538461538463" height="5.0" style="fill:cyan;opacity:0.3;"/>
  <text x="340.0" y="10.0" transform="matrix(6.123233995736766E-17,-1.0,1.0,6.123233995736766E-17,330.0,350.0)" style="font-size:1.0000000000000013px;">Sri Lanka.</text>
  <rect x="344.0" y="5.0" width="3.8461538461538463" height="5.0" style="fill:cyan;opacity:0.3;"/>
  <text x="344.0" y="10.0" transform="matrix(6.123233995736766E-17,-1.0,1.0,6.123233995736766E-17,334.0,354.0)" style="font-size:1.0000000000000013px;">Eritrea</text>
  <rect x="348.0" y="5.0" width="3.8461538461538463" height="5.0" style="fill:cyan;opacity:0.3;"/>
  <text x="348.0" y="10.0" transform="matrix(6.123233995736766E-17,-1.0,1.0,6.123233995736766E-17,338.0,358.0)" style="font-size:1.0000000000000013px;">Madagascar</text>
  <rect x="352.0" y="5.0" width="3.8461538461538463" height="5.0" style="fill:cyan;opacity:0.3;"/>
  <text x="352.0" y="10.0" transform="matrix(6.123233995736766E-17,-1.0,1.0,6.123233995736766E-17,342.0,362.0)" style="font-size:1.0000000000000013px;">Libya</text>
  <rect x="356.0" y="5.0" width="3.8461538461538463" height="5.0" style="fill:cyan;opacity:0.3;"/>
  <text x="356.0" y="10.0" transform="matrix(6.123233995736766E-17,-1.0,1.0,6.123233995736766E-17,346.0,366.0)" style="font-size:1.0000000000000013px;">Kuwait</text>
  <rect x="360.0" y="5.0" width="3.8461538461538463" height="5.0" style="fill:cyan;opacity:0.3;"/>
  <text x="360.0" y="10.0" transform="matrix(6.123233995736766E-17,-1.0,1.0,6.123233995736766E-17,350.0,370.0)" style="font-size:1.0000000000000013px;">Croatia</text>
  <rect x="363.0" y="5.0" width="3.8461538461538463" height="5.0" style="fill:cyan;opacity:0.3;"/>
  <text x="363.0" y="10.0" transform="matrix(6.123233995736766E-17,-1.0,1.0,6.123233995736766E-17,353.0,373.0)" style="font-size:1.0000000000000013px;">Djibouti</text>
  <rect x="367.0" y="5.0" width="3.8461538461538463" height="5.0" style="fill:cyan;opacity:0.3;"/>
  <text x="367.0" y="10.0" transform="matrix(6.123233995736766E-17,-1.0,1.0,6.123233995736766E-17,357.0,377.0)" style="font-size:1.0000000000000013px;">Azerbaijan</text>
  <rect x="371.0" y="5.0" width="3.8461538461538463" height="5.0" style="fill:cyan;opacity:0.3;"/>
  <text x="371.0" y="10.0" transform="matrix(6.123233995736766E-17,-1.0,1.0,6.123233995736766E-17,361.0,381.0)" style="font-size:1.0000000000000013px;">Palau</text>
  <rect x="375.0" y="5.0" width="3.8461538461538463" height="5.0" style="fill:cyan;opacity:0.3;"/>
  <text x="375.0" y="10.0" transform="matrix(6.123233995736766E-17,-1.0,1.0,6.123233995736766E-17,365.0,385.0)" style="font-size:1.0000000000000013px;">Estonia</text>
  <rect x="379.0" y="5.0" width="3.8461538461538463" height="5.0" style="fill:cyan;opacity:0.3;"/>
  <text x="379.0" y="10.0" transform="matrix(6.123233995736766E-17,-1.0,1.0,6.123233995736766E-17,369.0,389.0)" style="font-size:1.0000000000000013px;">Albania</text>
  <rect x="383.0" y="5.0" width="3.8461538461538463" height="5.0" style="fill:cyan;opacity:0.3;"/>
  <text x="383.0" y="10.0" transform="matrix(6.123233995736766E-17,-1.0,1.0,6.123233995736766E-17,373.0,393.0)" style="font-size:1.0000000000000013px;">Vanuatu</text>
  <rect x="386.0" y="5.0" width="3.8461538461538463" height="5.0" style="fill:cyan;opacity:0.3;"/>
  <text x="386.0" y="10.0" transform="matrix(6.123233995736766E-17,-1.0,1.0,6.123233995736766E-17,376.0,396.0)" style="font-size:1.0000000000000013px;">Gambia</text>
  <rect x="390.0" y="5.0" width="3.8461538461538463" height="5.0" style="fill:cyan;opacity:0.3;"/>
  <text x="390.0" y="10.0" transform="matrix(6.123233995736766E-17,-1.0,1.0,6.123233995736766E-17,380.0,400.0)" style="font-size:1.0000000000000013px;">Bosnia and Herz</text>
  <rect x="394.0" y="5.0" width="3.8461538461538463" height="5.0" style="fill:cyan;opacity:0.3;"/>
  <text x="394.0" y="10.0" transform="matrix(6.123233995736766E-17,-1.0,1.0,6.123233995736766E-17,384.0,404.0)" style="font-size:1.0000000000000013px;">Rwanda</text>
  <rect x="398.0" y="8.0" width="3.8461538461538463" height="2.0" style="fill:cyan;opacity:0.3;"/>
  <text x="398.0" y="10.0" transform="matrix(6.123233995736766E-17,-1.0,1.0,6.123233995736766E-17,388.0,408.0)" style="font-size:1.0000000000000013px;">Papua New Guine</text>
  <rect x="402.0" y="8.0" width="3.8461538461538463" height="2.0" style="fill:cyan;opacity:0.3;"/>
  <text x="402.0" y="10.0" transform="matrix(6.123233995736766E-17,-1.0,1.0,6.123233995736766E-17,392.0,412.0)" style="font-size:1.0000000000000013px;">Sudan</text>
  <rect x="406.0" y="8.0" width="3.8461538461538463" height="2.0" style="fill:cyan;opacity:0.3;"/>
  <text x="406.0" y="10.0" transform="matrix(6.123233995736766E-17,-1.0,1.0,6.123233995736766E-17,396.0,416.0)" style="font-size:1.0000000000000013px;">Mongolia</text>
  <rect x="410.0" y="8.0" width="3.8461538461538463" height="2.0" style="fill:cyan;opacity:0.3;"/>
  <text x="410.0" y="10.0" transform="matrix(6.123233995736766E-17,-1.0,1.0,6.123233995736766E-17,400.0,420.0)" style="font-size:1.0000000000000013px;">Montserrat</text>
  <rect x="413.0" y="8.0" width="3.8461538461538463" height="2.0" style="fill:cyan;opacity:0.3;"/>
  <text x="413.0" y="10.0" transform="matrix(6.123233995736766E-17,-1.0,1.0,6.123233995736766E-17,403.0,423.0)" style="font-size:1.0000000000000013px;">Panama</text>
  <rect x="417.0" y="8.0" width="3.8461538461538463" height="2.0" style="fill:cyan;opacity:0.3;"/>
  <text x="417.0" y="10.0" transform="matrix(6.123233995736766E-17,-1.0,1.0,6.123233995736766E-17,407.0,427.0)" style="font-size:1.0000000000000013px;">Guatemala</text>
  <rect x="421.0" y="8.0" width="3.8461538461538463" height="2.0" style="fill:cyan;opacity:0.3;"/>
  <text x="421.0" y="10.0" transform="matrix(6.123233995736766E-17,-1.0,1.0,6.123233995736766E-17,411.0,431.0)" style="font-size:1.0000000000000013px;">Papua New Guine</text>
  <rect x="425.0" y="8.0" width="3.8461538461538463" height="2.0" style="fill:cyan;opacity:0.3;"/>
  <text x="425.0" y="10.0" transform="matrix(6.123233995736766E-17,-1.0,1.0,6.123233995736766E-17,415.0,435.0)" style="font-size:1.0000000000000013px;">Zambia</text>
  <rect x="429.0" y="8.0" width="3.8461538461538463" height="2.0" style="fill:cyan;opacity:0.3;"/>
  <text x="429.0" y="10.0" transform="matrix(6.123233995736766E-17,-1.0,1.0,6.123233995736766E-17,419.0,439.0)" style="font-size:1.0000000000000013px;">Hong Kong.</text>
  <rect x="433.0" y="8.0" width="3.8461538461538463" height="2.0" style="fill:cyan;opacity:0.3;"/>
  <text x="433.0" y="10.0" transform="matrix(6.123233995736766E-17,-1.0,1.0,6.123233995736766E-17,423.0,443.0)" style="font-size:1.0000000000000013px;">Georgia</text>
  <rect x="436.0" y="8.0" width="3.8461538461538463" height="2.0" style="fill:cyan;opacity:0.3;"/>
  <text x="436.0" y="10.0" transform="matrix(6.123233995736766E-17,-1.0,1.0,6.123233995736766E-17,426.0,446.0)" style="font-size:1.0000000000000013px;">Jamaica</text>
  <rect x="440.0" y="8.0" width="3.8461538461538463" height="2.0" style="fill:cyan;opacity:0.3;"/>
  <text x="440.0" y="10.0" transform="matrix(6.123233995736766E-17,-1.0,1.0,6.123233995736766E-17,430.0,450.0)" style="font-size:1.0000000000000013px;">Fiji</text>
  <rect x="444.0" y="8.0" width="3.8461538461538463" height="2.0" style="fill:cyan;opacity:0.3;"/>
  <text x="444.0" y="10.0" transform="matrix(6.123233995736766E-17,-1.0,1.0,6.123233995736766E-17,434.0,454.0)" style="font-size:1.0000000000000013px;">United Kingdom,</text>
  <rect x="448.0" y="8.0" width="3.8461538461538463" height="2.0" style="fill:cyan;opacity:0.3;"/>
  <text x="448.0" y="10.0" transform="matrix(6.123233995736766E-17,-1.0,1.0,6.123233995736766E-17,438.0,458.0)" style="font-size:1.0000000000000013px;">Costa Rica</text>
  <rect x="452.0" y="8.0" width="3.8461538461538463" height="2.0" style="fill:cyan;opacity:0.3;"/>
  <text x="452.0" y="10.0" transform="matrix(6.123233995736766E-17,-1.0,1.0,6.123233995736766E-17,442.0,462.0)" style="font-size:1.0000000000000013px;">United Kingdom.</text>
  <rect x="456.0" y="8.0" width="3.8461538461538463" height="2.0" style="fill:cyan;opacity:0.3;"/>
  <text x="456.0" y="10.0" transform="matrix(6.123233995736766E-17,-1.0,1.0,6.123233995736766E-17,446.0,466.0)" style="font-size:1.0000000000000013px;">Guernsey</text>
  <rect x="460.0" y="8.0" width="3.8461538461538463" height="2.0" style="fill:cyan;opacity:0.3;"/>
  <text x="460.0" y="10.0" transform="matrix(6.123233995736766E-17,-1.0,1.0,6.123233995736766E-17,450.0,470.0)" style="font-size:1.0000000000000013px;">Jersey</text>
  <rect x="463.0" y="8.0" width="3.8461538461538463" height="2.0" style="fill:cyan;opacity:0.3;"/>
  <text x="463.0" y="10.0" transform="matrix(6.123233995736766E-17,-1.0,1.0,6.123233995736766E-17,453.0,473.0)" style="font-size:1.0000000000000013px;">Slovenia</text>
  <rect x="467.0" y="8.0" width="3.8461538461538463" height="2.0" style="fill:cyan;opacity:0.3;"/>
  <text x="467.0" y="10.0" transform="matrix(6.123233995736766E-17,-1.0,1.0,6.123233995736766E-17,457.0,477.0)" style="font-size:1.0000000000000013px;">Puerto Rico,</text>
  <rect x="471.0" y="8.0" width="3.8461538461538463" height="2.0" style="fill:cyan;opacity:0.3;"/>
  <text x="471.0" y="10.0" transform="matrix(6.123233995736766E-17,-1.0,1.0,6.123233995736766E-17,461.0,481.0)" style="font-size:1.0000000000000013px;">Ecuador</text>
  <rect x="475.0" y="8.0" width="3.8461538461538463" height="2.0" style="fill:cyan;opacity:0.3;"/>
  <text x="475.0" y="10.0" transform="matrix(6.123233995736766E-17,-1.0,1.0,6.123233995736766E-17,465.0,485.0)" style="font-size:1.0000000000000013px;">Saudi Arabia;</text>
  <rect x="479.0" y="8.0" width="3.8461538461538463" height="2.0" style="fill:cyan;opacity:0.3;"/>
  <text x="479.0" y="10.0" transform="matrix(6.123233995736766E-17,-1.0,1.0,6.123233995736766E-17,468.99999999999994,489.0)" style="font-size:1.0000000000000013px;">Haiti</text>
  <rect x="483.0" y="8.0" width="3.8461538461538463" height="2.0" style="fill:cyan;opacity:0.3;"/>
  <text x="483.0" y="10.0" transform="matrix(6.123233995736766E-17,-1.0,1.0,6.123233995736766E-17,472.99999999999994,493.0)" style="font-size:1.0000000000000013px;">Afghanistan</text>
  <rect x="486.0" y="8.0" width="3.8461538461538463" height="2.0" style="fill:cyan;opacity:0.3;"/>
  <text x="486.0" y="10.0" transform="matrix(6.123233995736766E-17,-1.0,1.0,6.123233995736766E-17,475.99999999999994,496.0)" style="font-size:1.0000000000000013px;">French Guiana</text>
  <rect x="490.0" y="8.0" width="3.8461538461538463" height="2.0" style="fill:cyan;opacity:0.3;"/>
  <text x="490.0" y="10.0" transform="matrix(6.123233995736766E-17,-1.0,1.0,6.123233995736766E-17,479.99999999999994,500.0)" style="font-size:1.0000000000000013px;">Costa Rica,</text>
  <rect x="494.0" y="8.0" width="3.8461538461538463" height="2.0" style="fill:cyan;opacity:0.3;"/>
  <text x="494.0" y="10.0" transform="matrix(6.123233995736766E-17,-1.0,1.0,6.123233995736766E-17,483.99999999999994,504.0)" style="font-size:1.0000000000000013px;">Slovakia</text>
  <rect x="498.0" y="8.0" width="3.8461538461538463" height="2.0" style="fill:cyan;opacity:0.3;"/>
  <text x="498.0" y="10.0" transform="matrix(6.123233995736766E-17,-1.0,1.0,6.123233995736766E-17,487.99999999999994,508.0)" style="font-size:1.0000000000000013px;">Togo</text>
  <rect x="502.0" y="8.0" width="3.8461538461538463" height="2.0" style="fill:cyan;opacity:0.3;"/>
  <text x="502.0" y="10.0" transform="matrix(6.123233995736766E-17,-1.0,1.0,6.123233995736766E-17,491.99999999999994,512.0)" style="font-size:1.0000000000000013px;">Barbados</text>
  <rect x="506.0" y="8.0" width="3.8461538461538463" height="2.0" style="fill:cyan;opacity:0.3;"/>
  <text x="506.0" y="10.0" transform="matrix(6.123233995736766E-17,-1.0,1.0,6.123233995736766E-17,495.99999999999994,516.0)" style="font-size:1.0000000000000013px;">Zimbabwe</text>
 </g>
</svg>
