<?xml version="1.0" encoding="UTF-8"?>
<svg xmlns="http://www.w3.org/2000/svg">
 <g>
  <text x="0.0" y="118.0" style="font-family:Helvetica;font-size:22px;stroke:red;">monoterpene</text>
  <text x="0.0" y="140.0" style="font-family:Helvetica;font-size:22px;stroke:red;">funders</text>
  <text x="10.0" y="162.0" title="Fundação de Amparo à Pesquisa do Estado de Minas Gerais" style="fill:black;font-family:Helvetica;font-size:13.2px;font-weight:bold;">Fundação de Amp</text>
  <text x="151.0" y="129.0" transform="matrix(6.123233995736766E-17,-1.0,1.0,6.123233995736766E-17,22.0,280.0)" title="Limonene" style="fill:black;font-family:Helvetica;font-size:13.2px;font-weight:bold;">Limonene</text>
  <g>
   <rect x="140.0" y="140.0" width="22.0" height="22.0" style="fill:#ffffff;"/>
   <text x="140.0" y="162.0" style="fill:orange;font-family:Helvetica;font-size:13.2px;stroke:orange;stroke-width:0.8;">0</text>
  </g>
  <text x="173.0" y="129.0" transform="matrix(6.123233995736766E-17,-1.0,1.0,6.123233995736766E-17,44.0,302.0)" title="Sabinene" style="fill:black;font-family:Helvetica;font-size:13.2px;font-weight:bold;">Sabinene</text>
  <g>
   <rect x="162.0" y="140.0" width="22.0" height="22.0" style="fill:#ffffff;"/>
   <text x="162.0" y="162.0" style="fill:orange;font-family:Helvetica;font-size:13.2px;stroke:orange;stroke-width:0.8;">0</text>
  </g>
  <text x="195.0" y="129.0" transform="matrix(6.123233995736766E-17,-1.0,1.0,6.123233995736766E-17,66.0,324.0)" title="Borneol" style="fill:black;font-family:Helvetica;font-size:13.2px;font-weight:bold;">Borneol</text>
  <g>
   <rect x="184.0" y="140.0" width="22.0" height="22.0" style="fill:#ffffff;"/>
   <text x="184.0" y="162.0" style="fill:orange;font-family:Helvetica;font-size:13.2px;stroke:orange;stroke-width:0.8;">0</text>
  </g>
  <text x="217.0" y="129.0" transform="matrix(6.123233995736766E-17,-1.0,1.0,6.123233995736766E-17,88.0,346.0)" title="Carvacrol" style="fill:black;font-family:Helvetica;font-size:13.2px;font-weight:bold;">Carvacrol</text>
  <g>
   <rect x="206.0" y="140.0" width="22.0" height="22.0" style="fill:#ffffff;"/>
   <text x="206.0" y="162.0" style="fill:orange;font-family:Helvetica;font-size:13.2px;stroke:orange;stroke-width:0.8;">0</text>
  </g>
  <text x="239.0" y="129.0" transform="matrix(6.123233995736766E-17,-1.0,1.0,6.123233995736766E-17,109.99999999999997,368.0)" title="Camphene" style="fill:black;font-family:Helvetica;font-size:13.2px;font-weight:bold;">Camphene</text>
  <g>
   <rect x="228.0" y="140.0" width="22.0" height="22.0" style="fill:#ffffff;"/>
   <text x="228.0" y="162.0" style="fill:orange;font-family:Helvetica;font-size:13.2px;stroke:orange;stroke-width:0.8;">0</text>
  </g>
  <text x="261.0" y="129.0" transform="matrix(6.123233995736766E-17,-1.0,1.0,6.123233995736766E-17,131.99999999999997,390.0)" title="Myrcene" style="fill:black;font-family:Helvetica;font-size:13.2px;font-weight:bold;">Myrcene</text>
  <g>
   <rect x="250.0" y="140.0" width="22.0" height="22.0" style="fill:#ffffff;"/>
   <text x="250.0" y="162.0" style="fill:orange;font-family:Helvetica;font-size:13.2px;stroke:orange;stroke-width:0.8;">0</text>
  </g>
  <text x="283.0" y="129.0" transform="matrix(6.123233995736766E-17,-1.0,1.0,6.123233995736766E-17,153.99999999999997,412.0)" title="Eucalyptol" style="fill:black;font-family:Helvetica;font-size:13.2px;font-weight:bold;">Eucalyptol</text>
  <g>
   <rect x="272.0" y="140.0" width="22.0" height="22.0" style="fill:#ffffff;"/>
   <text x="272.0" y="162.0" style="fill:orange;font-family:Helvetica;font-size:13.2px;stroke:orange;stroke-width:0.8;">0</text>
  </g>
  <text x="305.0" y="129.0" transform="matrix(6.123233995736766E-17,-1.0,1.0,6.123233995736766E-17,175.99999999999997,434.0)" title="Linalool" style="fill:black;font-family:Helvetica;font-size:13.2px;font-weight:bold;">Linalool</text>
  <g>
   <rect x="294.0" y="140.0" width="22.0" height="22.0" style="fill:#ffffff;"/>
   <text x="294.0" y="162.0" style="fill:orange;font-family:Helvetica;font-size:13.2px;stroke:orange;stroke-width:0.8;">0</text>
  </g>
  <text x="327.0" y="129.0" transform="matrix(6.123233995736766E-17,-1.0,1.0,6.123233995736766E-17,197.99999999999997,456.0)" title="Camphor" style="fill:black;font-family:Helvetica;font-size:13.2px;font-weight:bold;">Camphor</text>
  <g>
   <rect x="316.0" y="140.0" width="22.0" height="22.0" style="fill:#ffffff;"/>
   <text x="316.0" y="162.0" style="fill:orange;font-family:Helvetica;font-size:13.2px;stroke:orange;stroke-width:0.8;">0</text>
  </g>
  <text x="349.0" y="129.0" transform="matrix(6.123233995736766E-17,-1.0,1.0,6.123233995736766E-17,219.99999999999997,478.0)" title="Thymol" style="fill:black;font-family:Helvetica;font-size:13.2px;font-weight:bold;">Thymol</text>
  <g>
   <rect x="338.0" y="140.0" width="22.0" height="22.0" style="fill:#ffffff;"/>
   <text x="338.0" y="162.0" style="fill:orange;font-family:Helvetica;font-size:13.2px;stroke:orange;stroke-width:0.8;">0</text>
  </g>
  <text x="371.0" y="129.0" transform="matrix(6.123233995736766E-17,-1.0,1.0,6.123233995736766E-17,241.99999999999997,500.0)" title="Piperitone" style="fill:black;font-family:Helvetica;font-size:13.2px;font-weight:bold;">Piperitone</text>
  <g>
   <rect x="360.0" y="140.0" width="22.0" height="22.0" style="fill:#ffffff;"/>
   <text x="360.0" y="162.0" style="fill:orange;font-family:Helvetica;font-size:13.2px;stroke:orange;stroke-width:0.8;">0</text>
  </g>
  <text x="393.0" y="129.0" transform="matrix(6.123233995736766E-17,-1.0,1.0,6.123233995736766E-17,264.0,522.0)" title="Geraniol" style="fill:black;font-family:Helvetica;font-size:13.2px;font-weight:bold;">Geraniol</text>
  <g>
   <rect x="382.0" y="140.0" width="22.0" height="22.0" style="fill:#ffffff;"/>
   <text x="382.0" y="162.0" style="fill:orange;font-family:Helvetica;font-size:13.2px;stroke:orange;stroke-width:0.8;">0</text>
  </g>
  <text x="415.0" y="129.0" transform="matrix(6.123233995736766E-17,-1.0,1.0,6.123233995736766E-17,286.0,544.0)" title="Nerol" style="fill:black;font-family:Helvetica;font-size:13.2px;font-weight:bold;">Nerol</text>
  <g>
   <rect x="404.0" y="140.0" width="22.0" height="22.0" style="fill:#ffffff;"/>
   <text x="404.0" y="162.0" style="fill:orange;font-family:Helvetica;font-size:13.2px;stroke:orange;stroke-width:0.8;">0</text>
  </g>
  <text x="437.0" y="129.0" transform="matrix(6.123233995736766E-17,-1.0,1.0,6.123233995736766E-17,308.0,566.0)" title="Terpinene" style="fill:black;font-family:Helvetica;font-size:13.2px;font-weight:bold;">Terpinene</text>
  <g>
   <rect x="426.0" y="140.0" width="22.0" height="22.0" style="fill:#ffffff;"/>
   <text x="426.0" y="162.0" style="fill:orange;font-family:Helvetica;font-size:13.2px;stroke:orange;stroke-width:0.8;">0</text>
  </g>
  <text x="459.0" y="129.0" transform="matrix(6.123233995736766E-17,-1.0,1.0,6.123233995736766E-17,330.0,588.0)" title="Menthone" style="fill:black;font-family:Helvetica;font-size:13.2px;font-weight:bold;">Menthone</text>
  <g>
   <rect x="448.0" y="140.0" width="22.0" height="22.0" style="fill:#ffffff;"/>
   <text x="448.0" y="162.0" style="fill:orange;font-family:Helvetica;font-size:13.2px;stroke:orange;stroke-width:0.8;">0</text>
  </g>
  <text x="481.0" y="129.0" transform="matrix(6.123233995736766E-17,-1.0,1.0,6.123233995736766E-17,352.0,610.0)" title="Linalyl acetate" style="fill:black;font-family:Helvetica;font-size:13.2px;font-weight:bold;">Linalyl acetate</text>
  <g>
   <rect x="470.0" y="140.0" width="22.0" height="22.0" style="fill:#ffffff;"/>
   <text x="470.0" y="162.0" style="fill:orange;font-family:Helvetica;font-size:13.2px;stroke:orange;stroke-width:0.8;">0</text>
  </g>
  <text x="503.0" y="129.0" transform="matrix(6.123233995736766E-17,-1.0,1.0,6.123233995736766E-17,374.0,632.0)" title="Terpinen-4-ol" style="fill:black;font-family:Helvetica;font-size:13.2px;font-weight:bold;">Terpinen-4-ol</text>
  <g>
   <rect x="492.0" y="140.0" width="22.0" height="22.0" style="fill:#ffffff;"/>
   <text x="492.0" y="162.0" style="fill:orange;font-family:Helvetica;font-size:13.2px;stroke:orange;stroke-width:0.8;">0</text>
  </g>
  <text x="10.0" y="184.0" title="Université Blaise Pascal," style="fill:black;font-family:Helvetica;font-size:13.2px;font-weight:bold;">Université Blai</text>
  <g>
   <rect x="140.0" y="162.0" width="22.0" height="22.0" style="fill:#000;"/>
   <text x="140.0" y="184.0" style="fill:orange;font-family:Helvetica;font-size:13.2px;stroke:orange;stroke-width:0.8;">1</text>
  </g>
  <g>
   <rect x="162.0" y="162.0" width="22.0" height="22.0" style="fill:#000;"/>
   <text x="162.0" y="184.0" style="fill:orange;font-family:Helvetica;font-size:13.2px;stroke:orange;stroke-width:0.8;">1</text>
  </g>
  <g>
   <rect x="184.0" y="162.0" width="22.0" height="22.0" style="fill:#000;"/>
   <text x="184.0" y="184.0" style="fill:orange;font-family:Helvetica;font-size:13.2px;stroke:orange;stroke-width:0.8;">1</text>
  </g>
  <g>
   <rect x="206.0" y="162.0" width="22.0" height="22.0" style="fill:#000;"/>
   <text x="206.0" y="184.0" style="fill:orange;font-family:Helvetica;font-size:13.2px;stroke:orange;stroke-width:0.8;">1</text>
  </g>
  <g>
   <rect x="228.0" y="162.0" width="22.0" height="22.0" style="fill:#000;"/>
   <text x="228.0" y="184.0" style="fill:orange;font-family:Helvetica;font-size:13.2px;stroke:orange;stroke-width:0.8;">1</text>
  </g>
  <g>
   <rect x="250.0" y="162.0" width="22.0" height="22.0" style="fill:#000;"/>
   <text x="250.0" y="184.0" style="fill:orange;font-family:Helvetica;font-size:13.2px;stroke:orange;stroke-width:0.8;">1</text>
  </g>
  <g>
   <rect x="272.0" y="162.0" width="22.0" height="22.0" style="fill:#000;"/>
   <text x="272.0" y="184.0" style="fill:orange;font-family:Helvetica;font-size:13.2px;stroke:orange;stroke-width:0.8;">1</text>
  </g>
  <g>
   <rect x="294.0" y="162.0" width="22.0" height="22.0" style="fill:#ffffff;"/>
   <text x="294.0" y="184.0" style="fill:orange;font-family:Helvetica;font-size:13.2px;stroke:orange;stroke-width:0.8;">0</text>
  </g>
  <g>
   <rect x="316.0" y="162.0" width="22.0" height="22.0" style="fill:#000;"/>
   <text x="316.0" y="184.0" style="fill:orange;font-family:Helvetica;font-size:13.2px;stroke:orange;stroke-width:0.8;">1</text>
  </g>
  <g>
   <rect x="338.0" y="162.0" width="22.0" height="22.0" style="fill:#000;"/>
   <text x="338.0" y="184.0" style="fill:orange;font-family:Helvetica;font-size:13.2px;stroke:orange;stroke-width:0.8;">1</text>
  </g>
  <g>
   <rect x="360.0" y="162.0" width="22.0" height="22.0" style="fill:#000;"/>
   <text x="360.0" y="184.0" style="fill:orange;font-family:Helvetica;font-size:13.2px;stroke:orange;stroke-width:0.8;">1</text>
  </g>
  <g>
   <rect x="382.0" y="162.0" width="22.0" height="22.0" style="fill:#ffffff;"/>
   <text x="382.0" y="184.0" style="fill:orange;font-family:Helvetica;font-size:13.2px;stroke:orange;stroke-width:0.8;">0</text>
  </g>
  <g>
   <rect x="404.0" y="162.0" width="22.0" height="22.0" style="fill:#ffffff;"/>
   <text x="404.0" y="184.0" style="fill:orange;font-family:Helvetica;font-size:13.2px;stroke:orange;stroke-width:0.8;">0</text>
  </g>
  <g>
   <rect x="426.0" y="162.0" width="22.0" height="22.0" style="fill:#000;"/>
   <text x="426.0" y="184.0" style="fill:orange;font-family:Helvetica;font-size:13.2px;stroke:orange;stroke-width:0.8;">1</text>
  </g>
  <g>
   <rect x="448.0" y="162.0" width="22.0" height="22.0" style="fill:#ffffff;"/>
   <text x="448.0" y="184.0" style="fill:orange;font-family:Helvetica;font-size:13.2px;stroke:orange;stroke-width:0.8;">0</text>
  </g>
  <g>
   <rect x="470.0" y="162.0" width="22.0" height="22.0" style="fill:#ffffff;"/>
   <text x="470.0" y="184.0" style="fill:orange;font-family:Helvetica;font-size:13.2px;stroke:orange;stroke-width:0.8;">0</text>
  </g>
  <g>
   <rect x="492.0" y="162.0" width="22.0" height="22.0" style="fill:#ffffff;"/>
   <text x="492.0" y="184.0" style="fill:orange;font-family:Helvetica;font-size:13.2px;stroke:orange;stroke-width:0.8;">0</text>
  </g>
  <text x="10.0" y="206.0" title="Australian Centre for International Agricultural Research" style="fill:black;font-family:Helvetica;font-size:13.2px;font-weight:bold;">Australian Cent</text>
  <g>
   <rect x="140.0" y="184.0" width="22.0" height="22.0" style="fill:#ffffff;"/>
   <text x="140.0" y="206.0" style="fill:orange;font-family:Helvetica;font-size:13.2px;stroke:orange;stroke-width:0.8;">0</text>
  </g>
  <g>
   <rect x="162.0" y="184.0" width="22.0" height="22.0" style="fill:#ffffff;"/>
   <text x="162.0" y="206.0" style="fill:orange;font-family:Helvetica;font-size:13.2px;stroke:orange;stroke-width:0.8;">0</text>
  </g>
  <g>
   <rect x="184.0" y="184.0" width="22.0" height="22.0" style="fill:#ffffff;"/>
   <text x="184.0" y="206.0" style="fill:orange;font-family:Helvetica;font-size:13.2px;stroke:orange;stroke-width:0.8;">0</text>
  </g>
  <g>
   <rect x="206.0" y="184.0" width="22.0" height="22.0" style="fill:#ffffff;"/>
   <text x="206.0" y="206.0" style="fill:orange;font-family:Helvetica;font-size:13.2px;stroke:orange;stroke-width:0.8;">0</text>
  </g>
  <g>
   <rect x="228.0" y="184.0" width="22.0" height="22.0" style="fill:#ffffff;"/>
   <text x="228.0" y="206.0" style="fill:orange;font-family:Helvetica;font-size:13.2px;stroke:orange;stroke-width:0.8;">0</text>
  </g>
  <g>
   <rect x="250.0" y="184.0" width="22.0" height="22.0" style="fill:#ffffff;"/>
   <text x="250.0" y="206.0" style="fill:orange;font-family:Helvetica;font-size:13.2px;stroke:orange;stroke-width:0.8;">0</text>
  </g>
  <g>
   <rect x="272.0" y="184.0" width="22.0" height="22.0" style="fill:#ffffff;"/>
   <text x="272.0" y="206.0" style="fill:orange;font-family:Helvetica;font-size:13.2px;stroke:orange;stroke-width:0.8;">0</text>
  </g>
  <g>
   <rect x="294.0" y="184.0" width="22.0" height="22.0" style="fill:#ffffff;"/>
   <text x="294.0" y="206.0" style="fill:orange;font-family:Helvetica;font-size:13.2px;stroke:orange;stroke-width:0.8;">0</text>
  </g>
  <g>
   <rect x="316.0" y="184.0" width="22.0" height="22.0" style="fill:#ffffff;"/>
   <text x="316.0" y="206.0" style="fill:orange;font-family:Helvetica;font-size:13.2px;stroke:orange;stroke-width:0.8;">0</text>
  </g>
  <g>
   <rect x="338.0" y="184.0" width="22.0" height="22.0" style="fill:#ffffff;"/>
   <text x="338.0" y="206.0" style="fill:orange;font-family:Helvetica;font-size:13.2px;stroke:orange;stroke-width:0.8;">0</text>
  </g>
  <g>
   <rect x="360.0" y="184.0" width="22.0" height="22.0" style="fill:#ffffff;"/>
   <text x="360.0" y="206.0" style="fill:orange;font-family:Helvetica;font-size:13.2px;stroke:orange;stroke-width:0.8;">0</text>
  </g>
  <g>
   <rect x="382.0" y="184.0" width="22.0" height="22.0" style="fill:#ffffff;"/>
   <text x="382.0" y="206.0" style="fill:orange;font-family:Helvetica;font-size:13.2px;stroke:orange;stroke-width:0.8;">0</text>
  </g>
  <g>
   <rect x="404.0" y="184.0" width="22.0" height="22.0" style="fill:#ffffff;"/>
   <text x="404.0" y="206.0" style="fill:orange;font-family:Helvetica;font-size:13.2px;stroke:orange;stroke-width:0.8;">0</text>
  </g>
  <g>
   <rect x="426.0" y="184.0" width="22.0" height="22.0" style="fill:#ffffff;"/>
   <text x="426.0" y="206.0" style="fill:orange;font-family:Helvetica;font-size:13.2px;stroke:orange;stroke-width:0.8;">0</text>
  </g>
  <g>
   <rect x="448.0" y="184.0" width="22.0" height="22.0" style="fill:#ffffff;"/>
   <text x="448.0" y="206.0" style="fill:orange;font-family:Helvetica;font-size:13.2px;stroke:orange;stroke-width:0.8;">0</text>
  </g>
  <g>
   <rect x="470.0" y="184.0" width="22.0" height="22.0" style="fill:#ffffff;"/>
   <text x="470.0" y="206.0" style="fill:orange;font-family:Helvetica;font-size:13.2px;stroke:orange;stroke-width:0.8;">0</text>
  </g>
  <g>
   <rect x="492.0" y="184.0" width="22.0" height="22.0" style="fill:#ffffff;"/>
   <text x="492.0" y="206.0" style="fill:orange;font-family:Helvetica;font-size:13.2px;stroke:orange;stroke-width:0.8;">0</text>
  </g>
  <text x="10.0" y="228.0" title="Conselho Nacional de Desenvolvimento Científico e Tecnológico" style="fill:black;font-family:Helvetica;font-size:13.2px;font-weight:bold;">Conselho Nacion</text>
  <g>
   <rect x="140.0" y="206.0" width="22.0" height="22.0" style="fill:#000;"/>
   <text x="140.0" y="228.0" style="fill:orange;font-family:Helvetica;font-size:13.2px;stroke:orange;stroke-width:0.8;">1</text>
  </g>
  <g>
   <rect x="162.0" y="206.0" width="22.0" height="22.0" style="fill:#ffffff;"/>
   <text x="162.0" y="228.0" style="fill:orange;font-family:Helvetica;font-size:13.2px;stroke:orange;stroke-width:0.8;">0</text>
  </g>
  <g>
   <rect x="184.0" y="206.0" width="22.0" height="22.0" style="fill:#000;"/>
   <text x="184.0" y="228.0" style="fill:orange;font-family:Helvetica;font-size:13.2px;stroke:orange;stroke-width:0.8;">1</text>
  </g>
  <g>
   <rect x="206.0" y="206.0" width="22.0" height="22.0" style="fill:#ffffff;"/>
   <text x="206.0" y="228.0" style="fill:orange;font-family:Helvetica;font-size:13.2px;stroke:orange;stroke-width:0.8;">0</text>
  </g>
  <g>
   <rect x="228.0" y="206.0" width="22.0" height="22.0" style="fill:#ffffff;"/>
   <text x="228.0" y="228.0" style="fill:orange;font-family:Helvetica;font-size:13.2px;stroke:orange;stroke-width:0.8;">0</text>
  </g>
  <g>
   <rect x="250.0" y="206.0" width="22.0" height="22.0" style="fill:#ffffff;"/>
   <text x="250.0" y="228.0" style="fill:orange;font-family:Helvetica;font-size:13.2px;stroke:orange;stroke-width:0.8;">0</text>
  </g>
  <g>
   <rect x="272.0" y="206.0" width="22.0" height="22.0" style="fill:#ffffff;"/>
   <text x="272.0" y="228.0" style="fill:orange;font-family:Helvetica;font-size:13.2px;stroke:orange;stroke-width:0.8;">0</text>
  </g>
  <g>
   <rect x="294.0" y="206.0" width="22.0" height="22.0" style="fill:#000;"/>
   <text x="294.0" y="228.0" style="fill:orange;font-family:Helvetica;font-size:13.2px;stroke:orange;stroke-width:0.8;">1</text>
  </g>
  <g>
   <rect x="316.0" y="206.0" width="22.0" height="22.0" style="fill:#ffffff;"/>
   <text x="316.0" y="228.0" style="fill:orange;font-family:Helvetica;font-size:13.2px;stroke:orange;stroke-width:0.8;">0</text>
  </g>
  <g>
   <rect x="338.0" y="206.0" width="22.0" height="22.0" style="fill:#ffffff;"/>
   <text x="338.0" y="228.0" style="fill:orange;font-family:Helvetica;font-size:13.2px;stroke:orange;stroke-width:0.8;">0</text>
  </g>
  <g>
   <rect x="360.0" y="206.0" width="22.0" height="22.0" style="fill:#ffffff;"/>
   <text x="360.0" y="228.0" style="fill:orange;font-family:Helvetica;font-size:13.2px;stroke:orange;stroke-width:0.8;">0</text>
  </g>
  <g>
   <rect x="382.0" y="206.0" width="22.0" height="22.0" style="fill:#000;"/>
   <text x="382.0" y="228.0" style="fill:orange;font-family:Helvetica;font-size:13.2px;stroke:orange;stroke-width:0.8;">1</text>
  </g>
  <g>
   <rect x="404.0" y="206.0" width="22.0" height="22.0" style="fill:#ffffff;"/>
   <text x="404.0" y="228.0" style="fill:orange;font-family:Helvetica;font-size:13.2px;stroke:orange;stroke-width:0.8;">0</text>
  </g>
  <g>
   <rect x="426.0" y="206.0" width="22.0" height="22.0" style="fill:#ffffff;"/>
   <text x="426.0" y="228.0" style="fill:orange;font-family:Helvetica;font-size:13.2px;stroke:orange;stroke-width:0.8;">0</text>
  </g>
  <g>
   <rect x="448.0" y="206.0" width="22.0" height="22.0" style="fill:#ffffff;"/>
   <text x="448.0" y="228.0" style="fill:orange;font-family:Helvetica;font-size:13.2px;stroke:orange;stroke-width:0.8;">0</text>
  </g>
  <g>
   <rect x="470.0" y="206.0" width="22.0" height="22.0" style="fill:#ffffff;"/>
   <text x="470.0" y="228.0" style="fill:orange;font-family:Helvetica;font-size:13.2px;stroke:orange;stroke-width:0.8;">0</text>
  </g>
  <g>
   <rect x="492.0" y="206.0" width="22.0" height="22.0" style="fill:#ffffff;"/>
   <text x="492.0" y="228.0" style="fill:orange;font-family:Helvetica;font-size:13.2px;stroke:orange;stroke-width:0.8;">0</text>
  </g>
  <text x="10.0" y="250.0" title="Campus France" style="fill:black;font-family:Helvetica;font-size:13.2px;font-weight:bold;">Campus France</text>
  <g>
   <rect x="140.0" y="228.0" width="22.0" height="22.0" style="fill:#000;"/>
   <text x="140.0" y="250.0" style="fill:orange;font-family:Helvetica;font-size:13.2px;stroke:orange;stroke-width:0.8;">1</text>
  </g>
  <g>
   <rect x="162.0" y="228.0" width="22.0" height="22.0" style="fill:#000;"/>
   <text x="162.0" y="250.0" style="fill:orange;font-family:Helvetica;font-size:13.2px;stroke:orange;stroke-width:0.8;">1</text>
  </g>
  <g>
   <rect x="184.0" y="228.0" width="22.0" height="22.0" style="fill:#000;"/>
   <text x="184.0" y="250.0" style="fill:orange;font-family:Helvetica;font-size:13.2px;stroke:orange;stroke-width:0.8;">1</text>
  </g>
  <g>
   <rect x="206.0" y="228.0" width="22.0" height="22.0" style="fill:#000;"/>
   <text x="206.0" y="250.0" style="fill:orange;font-family:Helvetica;font-size:13.2px;stroke:orange;stroke-width:0.8;">1</text>
  </g>
  <g>
   <rect x="228.0" y="228.0" width="22.0" height="22.0" style="fill:#000;"/>
   <text x="228.0" y="250.0" style="fill:orange;font-family:Helvetica;font-size:13.2px;stroke:orange;stroke-width:0.8;">1</text>
  </g>
  <g>
   <rect x="250.0" y="228.0" width="22.0" height="22.0" style="fill:#000;"/>
   <text x="250.0" y="250.0" style="fill:orange;font-family:Helvetica;font-size:13.2px;stroke:orange;stroke-width:0.8;">1</text>
  </g>
  <g>
   <rect x="272.0" y="228.0" width="22.0" height="22.0" style="fill:#000;"/>
   <text x="272.0" y="250.0" style="fill:orange;font-family:Helvetica;font-size:13.2px;stroke:orange;stroke-width:0.8;">1</text>
  </g>
  <g>
   <rect x="294.0" y="228.0" width="22.0" height="22.0" style="fill:#ffffff;"/>
   <text x="294.0" y="250.0" style="fill:orange;font-family:Helvetica;font-size:13.2px;stroke:orange;stroke-width:0.8;">0</text>
  </g>
  <g>
   <rect x="316.0" y="228.0" width="22.0" height="22.0" style="fill:#000;"/>
   <text x="316.0" y="250.0" style="fill:orange;font-family:Helvetica;font-size:13.2px;stroke:orange;stroke-width:0.8;">1</text>
  </g>
  <g>
   <rect x="338.0" y="228.0" width="22.0" height="22.0" style="fill:#000;"/>
   <text x="338.0" y="250.0" style="fill:orange;font-family:Helvetica;font-size:13.2px;stroke:orange;stroke-width:0.8;">1</text>
  </g>
  <g>
   <rect x="360.0" y="228.0" width="22.0" height="22.0" style="fill:#000;"/>
   <text x="360.0" y="250.0" style="fill:orange;font-family:Helvetica;font-size:13.2px;stroke:orange;stroke-width:0.8;">1</text>
  </g>
  <g>
   <rect x="382.0" y="228.0" width="22.0" height="22.0" style="fill:#ffffff;"/>
   <text x="382.0" y="250.0" style="fill:orange;font-family:Helvetica;font-size:13.2px;stroke:orange;stroke-width:0.8;">0</text>
  </g>
  <g>
   <rect x="404.0" y="228.0" width="22.0" height="22.0" style="fill:#ffffff;"/>
   <text x="404.0" y="250.0" style="fill:orange;font-family:Helvetica;font-size:13.2px;stroke:orange;stroke-width:0.8;">0</text>
  </g>
  <g>
   <rect x="426.0" y="228.0" width="22.0" height="22.0" style="fill:#000;"/>
   <text x="426.0" y="250.0" style="fill:orange;font-family:Helvetica;font-size:13.2px;stroke:orange;stroke-width:0.8;">1</text>
  </g>
  <g>
   <rect x="448.0" y="228.0" width="22.0" height="22.0" style="fill:#ffffff;"/>
   <text x="448.0" y="250.0" style="fill:orange;font-family:Helvetica;font-size:13.2px;stroke:orange;stroke-width:0.8;">0</text>
  </g>
  <g>
   <rect x="470.0" y="228.0" width="22.0" height="22.0" style="fill:#ffffff;"/>
   <text x="470.0" y="250.0" style="fill:orange;font-family:Helvetica;font-size:13.2px;stroke:orange;stroke-width:0.8;">0</text>
  </g>
  <g>
   <rect x="492.0" y="228.0" width="22.0" height="22.0" style="fill:#ffffff;"/>
   <text x="492.0" y="250.0" style="fill:orange;font-family:Helvetica;font-size:13.2px;stroke:orange;stroke-width:0.8;">0</text>
  </g>
  <text x="10.0" y="272.0" title="Instituto de Tecnologia de Alimentos" style="fill:black;font-family:Helvetica;font-size:13.2px;font-weight:bold;">Instituto de Te</text>
  <g>
   <rect x="140.0" y="250.0" width="22.0" height="22.0" style="fill:#000;"/>
   <text x="140.0" y="272.0" style="fill:orange;font-family:Helvetica;font-size:13.2px;stroke:orange;stroke-width:0.8;">1</text>
  </g>
  <g>
   <rect x="162.0" y="250.0" width="22.0" height="22.0" style="fill:#ffffff;"/>
   <text x="162.0" y="272.0" style="fill:orange;font-family:Helvetica;font-size:13.2px;stroke:orange;stroke-width:0.8;">0</text>
  </g>
  <g>
   <rect x="184.0" y="250.0" width="22.0" height="22.0" style="fill:#000;"/>
   <text x="184.0" y="272.0" style="fill:orange;font-family:Helvetica;font-size:13.2px;stroke:orange;stroke-width:0.8;">1</text>
  </g>
  <g>
   <rect x="206.0" y="250.0" width="22.0" height="22.0" style="fill:#ffffff;"/>
   <text x="206.0" y="272.0" style="fill:orange;font-family:Helvetica;font-size:13.2px;stroke:orange;stroke-width:0.8;">0</text>
  </g>
  <g>
   <rect x="228.0" y="250.0" width="22.0" height="22.0" style="fill:#ffffff;"/>
   <text x="228.0" y="272.0" style="fill:orange;font-family:Helvetica;font-size:13.2px;stroke:orange;stroke-width:0.8;">0</text>
  </g>
  <g>
   <rect x="250.0" y="250.0" width="22.0" height="22.0" style="fill:#ffffff;"/>
   <text x="250.0" y="272.0" style="fill:orange;font-family:Helvetica;font-size:13.2px;stroke:orange;stroke-width:0.8;">0</text>
  </g>
  <g>
   <rect x="272.0" y="250.0" width="22.0" height="22.0" style="fill:#ffffff;"/>
   <text x="272.0" y="272.0" style="fill:orange;font-family:Helvetica;font-size:13.2px;stroke:orange;stroke-width:0.8;">0</text>
  </g>
  <g>
   <rect x="294.0" y="250.0" width="22.0" height="22.0" style="fill:#000;"/>
   <text x="294.0" y="272.0" style="fill:orange;font-family:Helvetica;font-size:13.2px;stroke:orange;stroke-width:0.8;">1</text>
  </g>
  <g>
   <rect x="316.0" y="250.0" width="22.0" height="22.0" style="fill:#ffffff;"/>
   <text x="316.0" y="272.0" style="fill:orange;font-family:Helvetica;font-size:13.2px;stroke:orange;stroke-width:0.8;">0</text>
  </g>
  <g>
   <rect x="338.0" y="250.0" width="22.0" height="22.0" style="fill:#ffffff;"/>
   <text x="338.0" y="272.0" style="fill:orange;font-family:Helvetica;font-size:13.2px;stroke:orange;stroke-width:0.8;">0</text>
  </g>
  <g>
   <rect x="360.0" y="250.0" width="22.0" height="22.0" style="fill:#ffffff;"/>
   <text x="360.0" y="272.0" style="fill:orange;font-family:Helvetica;font-size:13.2px;stroke:orange;stroke-width:0.8;">0</text>
  </g>
  <g>
   <rect x="382.0" y="250.0" width="22.0" height="22.0" style="fill:#000;"/>
   <text x="382.0" y="272.0" style="fill:orange;font-family:Helvetica;font-size:13.2px;stroke:orange;stroke-width:0.8;">1</text>
  </g>
  <g>
   <rect x="404.0" y="250.0" width="22.0" height="22.0" style="fill:#ffffff;"/>
   <text x="404.0" y="272.0" style="fill:orange;font-family:Helvetica;font-size:13.2px;stroke:orange;stroke-width:0.8;">0</text>
  </g>
  <g>
   <rect x="426.0" y="250.0" width="22.0" height="22.0" style="fill:#ffffff;"/>
   <text x="426.0" y="272.0" style="fill:orange;font-family:Helvetica;font-size:13.2px;stroke:orange;stroke-width:0.8;">0</text>
  </g>
  <g>
   <rect x="448.0" y="250.0" width="22.0" height="22.0" style="fill:#ffffff;"/>
   <text x="448.0" y="272.0" style="fill:orange;font-family:Helvetica;font-size:13.2px;stroke:orange;stroke-width:0.8;">0</text>
  </g>
  <g>
   <rect x="470.0" y="250.0" width="22.0" height="22.0" style="fill:#ffffff;"/>
   <text x="470.0" y="272.0" style="fill:orange;font-family:Helvetica;font-size:13.2px;stroke:orange;stroke-width:0.8;">0</text>
  </g>
  <g>
   <rect x="492.0" y="250.0" width="22.0" height="22.0" style="fill:#ffffff;"/>
   <text x="492.0" y="272.0" style="fill:orange;font-family:Helvetica;font-size:13.2px;stroke:orange;stroke-width:0.8;">0</text>
  </g>
  <text x="10.0" y="294.0" title="Coordenação de Aperfeiçoamento de Pessoal de Nível Superior" style="fill:black;font-family:Helvetica;font-size:13.2px;font-weight:bold;">Coordenação de </text>
  <g>
   <rect x="140.0" y="272.0" width="22.0" height="22.0" style="fill:#ffffff;"/>
   <text x="140.0" y="294.0" style="fill:orange;font-family:Helvetica;font-size:13.2px;stroke:orange;stroke-width:0.8;">0</text>
  </g>
  <g>
   <rect x="162.0" y="272.0" width="22.0" height="22.0" style="fill:#ffffff;"/>
   <text x="162.0" y="294.0" style="fill:orange;font-family:Helvetica;font-size:13.2px;stroke:orange;stroke-width:0.8;">0</text>
  </g>
  <g>
   <rect x="184.0" y="272.0" width="22.0" height="22.0" style="fill:#ffffff;"/>
   <text x="184.0" y="294.0" style="fill:orange;font-family:Helvetica;font-size:13.2px;stroke:orange;stroke-width:0.8;">0</text>
  </g>
  <g>
   <rect x="206.0" y="272.0" width="22.0" height="22.0" style="fill:#ffffff;"/>
   <text x="206.0" y="294.0" style="fill:orange;font-family:Helvetica;font-size:13.2px;stroke:orange;stroke-width:0.8;">0</text>
  </g>
  <g>
   <rect x="228.0" y="272.0" width="22.0" height="22.0" style="fill:#ffffff;"/>
   <text x="228.0" y="294.0" style="fill:orange;font-family:Helvetica;font-size:13.2px;stroke:orange;stroke-width:0.8;">0</text>
  </g>
  <g>
   <rect x="250.0" y="272.0" width="22.0" height="22.0" style="fill:#ffffff;"/>
   <text x="250.0" y="294.0" style="fill:orange;font-family:Helvetica;font-size:13.2px;stroke:orange;stroke-width:0.8;">0</text>
  </g>
  <g>
   <rect x="272.0" y="272.0" width="22.0" height="22.0" style="fill:#ffffff;"/>
   <text x="272.0" y="294.0" style="fill:orange;font-family:Helvetica;font-size:13.2px;stroke:orange;stroke-width:0.8;">0</text>
  </g>
  <g>
   <rect x="294.0" y="272.0" width="22.0" height="22.0" style="fill:#ffffff;"/>
   <text x="294.0" y="294.0" style="fill:orange;font-family:Helvetica;font-size:13.2px;stroke:orange;stroke-width:0.8;">0</text>
  </g>
  <g>
   <rect x="316.0" y="272.0" width="22.0" height="22.0" style="fill:#ffffff;"/>
   <text x="316.0" y="294.0" style="fill:orange;font-family:Helvetica;font-size:13.2px;stroke:orange;stroke-width:0.8;">0</text>
  </g>
  <g>
   <rect x="338.0" y="272.0" width="22.0" height="22.0" style="fill:#ffffff;"/>
   <text x="338.0" y="294.0" style="fill:orange;font-family:Helvetica;font-size:13.2px;stroke:orange;stroke-width:0.8;">0</text>
  </g>
  <g>
   <rect x="360.0" y="272.0" width="22.0" height="22.0" style="fill:#ffffff;"/>
   <text x="360.0" y="294.0" style="fill:orange;font-family:Helvetica;font-size:13.2px;stroke:orange;stroke-width:0.8;">0</text>
  </g>
  <g>
   <rect x="382.0" y="272.0" width="22.0" height="22.0" style="fill:#ffffff;"/>
   <text x="382.0" y="294.0" style="fill:orange;font-family:Helvetica;font-size:13.2px;stroke:orange;stroke-width:0.8;">0</text>
  </g>
  <g>
   <rect x="404.0" y="272.0" width="22.0" height="22.0" style="fill:#ffffff;"/>
   <text x="404.0" y="294.0" style="fill:orange;font-family:Helvetica;font-size:13.2px;stroke:orange;stroke-width:0.8;">0</text>
  </g>
  <g>
   <rect x="426.0" y="272.0" width="22.0" height="22.0" style="fill:#ffffff;"/>
   <text x="426.0" y="294.0" style="fill:orange;font-family:Helvetica;font-size:13.2px;stroke:orange;stroke-width:0.8;">0</text>
  </g>
  <g>
   <rect x="448.0" y="272.0" width="22.0" height="22.0" style="fill:#ffffff;"/>
   <text x="448.0" y="294.0" style="fill:orange;font-family:Helvetica;font-size:13.2px;stroke:orange;stroke-width:0.8;">0</text>
  </g>
  <g>
   <rect x="470.0" y="272.0" width="22.0" height="22.0" style="fill:#ffffff;"/>
   <text x="470.0" y="294.0" style="fill:orange;font-family:Helvetica;font-size:13.2px;stroke:orange;stroke-width:0.8;">0</text>
  </g>
  <g>
   <rect x="492.0" y="272.0" width="22.0" height="22.0" style="fill:#ffffff;"/>
   <text x="492.0" y="294.0" style="fill:orange;font-family:Helvetica;font-size:13.2px;stroke:orange;stroke-width:0.8;">0</text>
  </g>
  <text x="10.0" y="316.0" title="Universidade Federal do Piauí," style="fill:black;font-family:Helvetica;font-size:13.2px;font-weight:bold;">Universidade Fe</text>
  <g>
   <rect x="140.0" y="294.0" width="22.0" height="22.0" style="fill:#ffffff;"/>
   <text x="140.0" y="316.0" style="fill:orange;font-family:Helvetica;font-size:13.2px;stroke:orange;stroke-width:0.8;">0</text>
  </g>
  <g>
   <rect x="162.0" y="294.0" width="22.0" height="22.0" style="fill:#000;"/>
   <text x="162.0" y="316.0" style="fill:orange;font-family:Helvetica;font-size:13.2px;stroke:orange;stroke-width:0.8;">1</text>
  </g>
  <g>
   <rect x="184.0" y="294.0" width="22.0" height="22.0" style="fill:#ffffff;"/>
   <text x="184.0" y="316.0" style="fill:orange;font-family:Helvetica;font-size:13.2px;stroke:orange;stroke-width:0.8;">0</text>
  </g>
  <g>
   <rect x="206.0" y="294.0" width="22.0" height="22.0" style="fill:#ffffff;"/>
   <text x="206.0" y="316.0" style="fill:orange;font-family:Helvetica;font-size:13.2px;stroke:orange;stroke-width:0.8;">0</text>
  </g>
  <g>
   <rect x="228.0" y="294.0" width="22.0" height="22.0" style="fill:#ffffff;"/>
   <text x="228.0" y="316.0" style="fill:orange;font-family:Helvetica;font-size:13.2px;stroke:orange;stroke-width:0.8;">0</text>
  </g>
  <g>
   <rect x="250.0" y="294.0" width="22.0" height="22.0" style="fill:#ffffff;"/>
   <text x="250.0" y="316.0" style="fill:orange;font-family:Helvetica;font-size:13.2px;stroke:orange;stroke-width:0.8;">0</text>
  </g>
  <g>
   <rect x="272.0" y="294.0" width="22.0" height="22.0" style="fill:#ffffff;"/>
   <text x="272.0" y="316.0" style="fill:orange;font-family:Helvetica;font-size:13.2px;stroke:orange;stroke-width:0.8;">0</text>
  </g>
  <g>
   <rect x="294.0" y="294.0" width="22.0" height="22.0" style="fill:#ffffff;"/>
   <text x="294.0" y="316.0" style="fill:orange;font-family:Helvetica;font-size:13.2px;stroke:orange;stroke-width:0.8;">0</text>
  </g>
  <g>
   <rect x="316.0" y="294.0" width="22.0" height="22.0" style="fill:#ffffff;"/>
   <text x="316.0" y="316.0" style="fill:orange;font-family:Helvetica;font-size:13.2px;stroke:orange;stroke-width:0.8;">0</text>
  </g>
  <g>
   <rect x="338.0" y="294.0" width="22.0" height="22.0" style="fill:#ffffff;"/>
   <text x="338.0" y="316.0" style="fill:orange;font-family:Helvetica;font-size:13.2px;stroke:orange;stroke-width:0.8;">0</text>
  </g>
  <g>
   <rect x="360.0" y="294.0" width="22.0" height="22.0" style="fill:#ffffff;"/>
   <text x="360.0" y="316.0" style="fill:orange;font-family:Helvetica;font-size:13.2px;stroke:orange;stroke-width:0.8;">0</text>
  </g>
  <g>
   <rect x="382.0" y="294.0" width="22.0" height="22.0" style="fill:#ffffff;"/>
   <text x="382.0" y="316.0" style="fill:orange;font-family:Helvetica;font-size:13.2px;stroke:orange;stroke-width:0.8;">0</text>
  </g>
  <g>
   <rect x="404.0" y="294.0" width="22.0" height="22.0" style="fill:#ffffff;"/>
   <text x="404.0" y="316.0" style="fill:orange;font-family:Helvetica;font-size:13.2px;stroke:orange;stroke-width:0.8;">0</text>
  </g>
  <g>
   <rect x="426.0" y="294.0" width="22.0" height="22.0" style="fill:#ffffff;"/>
   <text x="426.0" y="316.0" style="fill:orange;font-family:Helvetica;font-size:13.2px;stroke:orange;stroke-width:0.8;">0</text>
  </g>
  <g>
   <rect x="448.0" y="294.0" width="22.0" height="22.0" style="fill:#ffffff;"/>
   <text x="448.0" y="316.0" style="fill:orange;font-family:Helvetica;font-size:13.2px;stroke:orange;stroke-width:0.8;">0</text>
  </g>
  <g>
   <rect x="470.0" y="294.0" width="22.0" height="22.0" style="fill:#ffffff;"/>
   <text x="470.0" y="316.0" style="fill:orange;font-family:Helvetica;font-size:13.2px;stroke:orange;stroke-width:0.8;">0</text>
  </g>
  <g>
   <rect x="492.0" y="294.0" width="22.0" height="22.0" style="fill:#ffffff;"/>
   <text x="492.0" y="316.0" style="fill:orange;font-family:Helvetica;font-size:13.2px;stroke:orange;stroke-width:0.8;">0</text>
  </g>
  <text x="10.0" y="338.0" title="Fundação de Amparo à Pesquisa do Estado de São Paulo" style="fill:black;font-family:Helvetica;font-size:13.2px;font-weight:bold;">Fundação de Amp</text>
  <g>
   <rect x="140.0" y="316.0" width="22.0" height="22.0" style="fill:#000;"/>
   <text x="140.0" y="338.0" style="fill:orange;font-family:Helvetica;font-size:13.2px;stroke:orange;stroke-width:0.8;">1</text>
  </g>
  <g>
   <rect x="162.0" y="316.0" width="22.0" height="22.0" style="fill:#ffffff;"/>
   <text x="162.0" y="338.0" style="fill:orange;font-family:Helvetica;font-size:13.2px;stroke:orange;stroke-width:0.8;">0</text>
  </g>
  <g>
   <rect x="184.0" y="316.0" width="22.0" height="22.0" style="fill:#000;"/>
   <text x="184.0" y="338.0" style="fill:orange;font-family:Helvetica;font-size:13.2px;stroke:orange;stroke-width:0.8;">1</text>
  </g>
  <g>
   <rect x="206.0" y="316.0" width="22.0" height="22.0" style="fill:#ffffff;"/>
   <text x="206.0" y="338.0" style="fill:orange;font-family:Helvetica;font-size:13.2px;stroke:orange;stroke-width:0.8;">0</text>
  </g>
  <g>
   <rect x="228.0" y="316.0" width="22.0" height="22.0" style="fill:#ffffff;"/>
   <text x="228.0" y="338.0" style="fill:orange;font-family:Helvetica;font-size:13.2px;stroke:orange;stroke-width:0.8;">0</text>
  </g>
  <g>
   <rect x="250.0" y="316.0" width="22.0" height="22.0" style="fill:#ffffff;"/>
   <text x="250.0" y="338.0" style="fill:orange;font-family:Helvetica;font-size:13.2px;stroke:orange;stroke-width:0.8;">0</text>
  </g>
  <g>
   <rect x="272.0" y="316.0" width="22.0" height="22.0" style="fill:#ffffff;"/>
   <text x="272.0" y="338.0" style="fill:orange;font-family:Helvetica;font-size:13.2px;stroke:orange;stroke-width:0.8;">0</text>
  </g>
  <g>
   <rect x="294.0" y="316.0" width="22.0" height="22.0" style="fill:#000;"/>
   <text x="294.0" y="338.0" style="fill:orange;font-family:Helvetica;font-size:13.2px;stroke:orange;stroke-width:0.8;">1</text>
  </g>
  <g>
   <rect x="316.0" y="316.0" width="22.0" height="22.0" style="fill:#ffffff;"/>
   <text x="316.0" y="338.0" style="fill:orange;font-family:Helvetica;font-size:13.2px;stroke:orange;stroke-width:0.8;">0</text>
  </g>
  <g>
   <rect x="338.0" y="316.0" width="22.0" height="22.0" style="fill:#ffffff;"/>
   <text x="338.0" y="338.0" style="fill:orange;font-family:Helvetica;font-size:13.2px;stroke:orange;stroke-width:0.8;">0</text>
  </g>
  <g>
   <rect x="360.0" y="316.0" width="22.0" height="22.0" style="fill:#ffffff;"/>
   <text x="360.0" y="338.0" style="fill:orange;font-family:Helvetica;font-size:13.2px;stroke:orange;stroke-width:0.8;">0</text>
  </g>
  <g>
   <rect x="382.0" y="316.0" width="22.0" height="22.0" style="fill:#000;"/>
   <text x="382.0" y="338.0" style="fill:orange;font-family:Helvetica;font-size:13.2px;stroke:orange;stroke-width:0.8;">1</text>
  </g>
  <g>
   <rect x="404.0" y="316.0" width="22.0" height="22.0" style="fill:#ffffff;"/>
   <text x="404.0" y="338.0" style="fill:orange;font-family:Helvetica;font-size:13.2px;stroke:orange;stroke-width:0.8;">0</text>
  </g>
  <g>
   <rect x="426.0" y="316.0" width="22.0" height="22.0" style="fill:#ffffff;"/>
   <text x="426.0" y="338.0" style="fill:orange;font-family:Helvetica;font-size:13.2px;stroke:orange;stroke-width:0.8;">0</text>
  </g>
  <g>
   <rect x="448.0" y="316.0" width="22.0" height="22.0" style="fill:#ffffff;"/>
   <text x="448.0" y="338.0" style="fill:orange;font-family:Helvetica;font-size:13.2px;stroke:orange;stroke-width:0.8;">0</text>
  </g>
  <g>
   <rect x="470.0" y="316.0" width="22.0" height="22.0" style="fill:#ffffff;"/>
   <text x="470.0" y="338.0" style="fill:orange;font-family:Helvetica;font-size:13.2px;stroke:orange;stroke-width:0.8;">0</text>
  </g>
  <g>
   <rect x="492.0" y="316.0" width="22.0" height="22.0" style="fill:#ffffff;"/>
   <text x="492.0" y="338.0" style="fill:orange;font-family:Helvetica;font-size:13.2px;stroke:orange;stroke-width:0.8;">0</text>
  </g>
  <text x="10.0" y="360.0" title="Centre National de la Recherche Scientifique" style="fill:black;font-family:Helvetica;font-size:13.2px;font-weight:bold;">Centre National</text>
  <g>
   <rect x="140.0" y="338.0" width="22.0" height="22.0" style="fill:#000;"/>
   <text x="140.0" y="360.0" style="fill:orange;font-family:Helvetica;font-size:13.2px;stroke:orange;stroke-width:0.8;">1</text>
  </g>
  <g>
   <rect x="162.0" y="338.0" width="22.0" height="22.0" style="fill:#000;"/>
   <text x="162.0" y="360.0" style="fill:orange;font-family:Helvetica;font-size:13.2px;stroke:orange;stroke-width:0.8;">1</text>
  </g>
  <g>
   <rect x="184.0" y="338.0" width="22.0" height="22.0" style="fill:#000;"/>
   <text x="184.0" y="360.0" style="fill:orange;font-family:Helvetica;font-size:13.2px;stroke:orange;stroke-width:0.8;">1</text>
  </g>
  <g>
   <rect x="206.0" y="338.0" width="22.0" height="22.0" style="fill:#000;"/>
   <text x="206.0" y="360.0" style="fill:orange;font-family:Helvetica;font-size:13.2px;stroke:orange;stroke-width:0.8;">1</text>
  </g>
  <g>
   <rect x="228.0" y="338.0" width="22.0" height="22.0" style="fill:#000;"/>
   <text x="228.0" y="360.0" style="fill:orange;font-family:Helvetica;font-size:13.2px;stroke:orange;stroke-width:0.8;">1</text>
  </g>
  <g>
   <rect x="250.0" y="338.0" width="22.0" height="22.0" style="fill:#000;"/>
   <text x="250.0" y="360.0" style="fill:orange;font-family:Helvetica;font-size:13.2px;stroke:orange;stroke-width:0.8;">1</text>
  </g>
  <g>
   <rect x="272.0" y="338.0" width="22.0" height="22.0" style="fill:#000;"/>
   <text x="272.0" y="360.0" style="fill:orange;font-family:Helvetica;font-size:13.2px;stroke:orange;stroke-width:0.8;">1</text>
  </g>
  <g>
   <rect x="294.0" y="338.0" width="22.0" height="22.0" style="fill:#ffffff;"/>
   <text x="294.0" y="360.0" style="fill:orange;font-family:Helvetica;font-size:13.2px;stroke:orange;stroke-width:0.8;">0</text>
  </g>
  <g>
   <rect x="316.0" y="338.0" width="22.0" height="22.0" style="fill:#000;"/>
   <text x="316.0" y="360.0" style="fill:orange;font-family:Helvetica;font-size:13.2px;stroke:orange;stroke-width:0.8;">1</text>
  </g>
  <g>
   <rect x="338.0" y="338.0" width="22.0" height="22.0" style="fill:#000;"/>
   <text x="338.0" y="360.0" style="fill:orange;font-family:Helvetica;font-size:13.2px;stroke:orange;stroke-width:0.8;">1</text>
  </g>
  <g>
   <rect x="360.0" y="338.0" width="22.0" height="22.0" style="fill:#000;"/>
   <text x="360.0" y="360.0" style="fill:orange;font-family:Helvetica;font-size:13.2px;stroke:orange;stroke-width:0.8;">1</text>
  </g>
  <g>
   <rect x="382.0" y="338.0" width="22.0" height="22.0" style="fill:#ffffff;"/>
   <text x="382.0" y="360.0" style="fill:orange;font-family:Helvetica;font-size:13.2px;stroke:orange;stroke-width:0.8;">0</text>
  </g>
  <g>
   <rect x="404.0" y="338.0" width="22.0" height="22.0" style="fill:#ffffff;"/>
   <text x="404.0" y="360.0" style="fill:orange;font-family:Helvetica;font-size:13.2px;stroke:orange;stroke-width:0.8;">0</text>
  </g>
  <g>
   <rect x="426.0" y="338.0" width="22.0" height="22.0" style="fill:#000;"/>
   <text x="426.0" y="360.0" style="fill:orange;font-family:Helvetica;font-size:13.2px;stroke:orange;stroke-width:0.8;">1</text>
  </g>
  <g>
   <rect x="448.0" y="338.0" width="22.0" height="22.0" style="fill:#ffffff;"/>
   <text x="448.0" y="360.0" style="fill:orange;font-family:Helvetica;font-size:13.2px;stroke:orange;stroke-width:0.8;">0</text>
  </g>
  <g>
   <rect x="470.0" y="338.0" width="22.0" height="22.0" style="fill:#ffffff;"/>
   <text x="470.0" y="360.0" style="fill:orange;font-family:Helvetica;font-size:13.2px;stroke:orange;stroke-width:0.8;">0</text>
  </g>
  <g>
   <rect x="492.0" y="338.0" width="22.0" height="22.0" style="fill:#ffffff;"/>
   <text x="492.0" y="360.0" style="fill:orange;font-family:Helvetica;font-size:13.2px;stroke:orange;stroke-width:0.8;">0</text>
  </g>
  <text x="10.0" y="382.0" title="Universidade de São Paulo," style="fill:black;font-family:Helvetica;font-size:13.2px;font-weight:bold;">Universidade de</text>
  <g>
   <rect x="140.0" y="360.0" width="22.0" height="22.0" style="fill:#ffffff;"/>
   <text x="140.0" y="382.0" style="fill:orange;font-family:Helvetica;font-size:13.2px;stroke:orange;stroke-width:0.8;">0</text>
  </g>
  <g>
   <rect x="162.0" y="360.0" width="22.0" height="22.0" style="fill:#ffffff;"/>
   <text x="162.0" y="382.0" style="fill:orange;font-family:Helvetica;font-size:13.2px;stroke:orange;stroke-width:0.8;">0</text>
  </g>
  <g>
   <rect x="184.0" y="360.0" width="22.0" height="22.0" style="fill:#ffffff;"/>
   <text x="184.0" y="382.0" style="fill:orange;font-family:Helvetica;font-size:13.2px;stroke:orange;stroke-width:0.8;">0</text>
  </g>
  <g>
   <rect x="206.0" y="360.0" width="22.0" height="22.0" style="fill:#ffffff;"/>
   <text x="206.0" y="382.0" style="fill:orange;font-family:Helvetica;font-size:13.2px;stroke:orange;stroke-width:0.8;">0</text>
  </g>
  <g>
   <rect x="228.0" y="360.0" width="22.0" height="22.0" style="fill:#ffffff;"/>
   <text x="228.0" y="382.0" style="fill:orange;font-family:Helvetica;font-size:13.2px;stroke:orange;stroke-width:0.8;">0</text>
  </g>
  <g>
   <rect x="250.0" y="360.0" width="22.0" height="22.0" style="fill:#ffffff;"/>
   <text x="250.0" y="382.0" style="fill:orange;font-family:Helvetica;font-size:13.2px;stroke:orange;stroke-width:0.8;">0</text>
  </g>
  <g>
   <rect x="272.0" y="360.0" width="22.0" height="22.0" style="fill:#ffffff;"/>
   <text x="272.0" y="382.0" style="fill:orange;font-family:Helvetica;font-size:13.2px;stroke:orange;stroke-width:0.8;">0</text>
  </g>
  <g>
   <rect x="294.0" y="360.0" width="22.0" height="22.0" style="fill:#ffffff;"/>
   <text x="294.0" y="382.0" style="fill:orange;font-family:Helvetica;font-size:13.2px;stroke:orange;stroke-width:0.8;">0</text>
  </g>
  <g>
   <rect x="316.0" y="360.0" width="22.0" height="22.0" style="fill:#ffffff;"/>
   <text x="316.0" y="382.0" style="fill:orange;font-family:Helvetica;font-size:13.2px;stroke:orange;stroke-width:0.8;">0</text>
  </g>
  <g>
   <rect x="338.0" y="360.0" width="22.0" height="22.0" style="fill:#ffffff;"/>
   <text x="338.0" y="382.0" style="fill:orange;font-family:Helvetica;font-size:13.2px;stroke:orange;stroke-width:0.8;">0</text>
  </g>
  <g>
   <rect x="360.0" y="360.0" width="22.0" height="22.0" style="fill:#ffffff;"/>
   <text x="360.0" y="382.0" style="fill:orange;font-family:Helvetica;font-size:13.2px;stroke:orange;stroke-width:0.8;">0</text>
  </g>
  <g>
   <rect x="382.0" y="360.0" width="22.0" height="22.0" style="fill:#ffffff;"/>
   <text x="382.0" y="382.0" style="fill:orange;font-family:Helvetica;font-size:13.2px;stroke:orange;stroke-width:0.8;">0</text>
  </g>
  <g>
   <rect x="404.0" y="360.0" width="22.0" height="22.0" style="fill:#ffffff;"/>
   <text x="404.0" y="382.0" style="fill:orange;font-family:Helvetica;font-size:13.2px;stroke:orange;stroke-width:0.8;">0</text>
  </g>
  <g>
   <rect x="426.0" y="360.0" width="22.0" height="22.0" style="fill:#ffffff;"/>
   <text x="426.0" y="382.0" style="fill:orange;font-family:Helvetica;font-size:13.2px;stroke:orange;stroke-width:0.8;">0</text>
  </g>
  <g>
   <rect x="448.0" y="360.0" width="22.0" height="22.0" style="fill:#ffffff;"/>
   <text x="448.0" y="382.0" style="fill:orange;font-family:Helvetica;font-size:13.2px;stroke:orange;stroke-width:0.8;">0</text>
  </g>
  <g>
   <rect x="470.0" y="360.0" width="22.0" height="22.0" style="fill:#ffffff;"/>
   <text x="470.0" y="382.0" style="fill:orange;font-family:Helvetica;font-size:13.2px;stroke:orange;stroke-width:0.8;">0</text>
  </g>
  <g>
   <rect x="492.0" y="360.0" width="22.0" height="22.0" style="fill:#ffffff;"/>
   <text x="492.0" y="382.0" style="fill:orange;font-family:Helvetica;font-size:13.2px;stroke:orange;stroke-width:0.8;">0</text>
  </g>
 </g>
</svg>
