<?xml version="1.0" encoding="UTF-8"?>
<svg xmlns="http://www.w3.org/2000/svg">
 <g>
  <text x="0.0" y="118.0" style="font-family:Helvetica;font-size:22px;stroke:red;">funders</text>
  <text x="0.0" y="140.0" style="font-family:Helvetica;font-size:22px;stroke:red;">country</text>
  <text x="10.0" y="162.0" title="Brazil" style="fill:black;font-family:Helvetica;font-size:13.2px;font-weight:bold;">Brazil</text>
  <text x="151.0" y="129.0" transform="matrix(6.123233995736766E-17,-1.0,1.0,6.123233995736766E-17,22.0,280.0)" title="Fundação de Amparo à Pesquisa do Estado de Minas Gerais" style="fill:black;font-family:Helvetica;font-size:13.2px;font-weight:bold;">Fundação de Amp</text>
  <g>
   <rect x="140.0" y="140.0" width="22.0" height="22.0" style="fill:#000;"/>
   <text x="140.0" y="162.0" style="fill:orange;font-family:Helvetica;font-size:13.2px;stroke:orange;stroke-width:0.8;">1</text>
  </g>
  <text x="173.0" y="129.0" transform="matrix(6.123233995736766E-17,-1.0,1.0,6.123233995736766E-17,44.0,302.0)" title="Université Blaise Pascal," style="fill:black;font-family:Helvetica;font-size:13.2px;font-weight:bold;">Université Blai</text>
  <g>
   <rect x="162.0" y="140.0" width="22.0" height="22.0" style="fill:#ffffff;"/>
   <text x="162.0" y="162.0" style="fill:orange;font-family:Helvetica;font-size:13.2px;stroke:orange;stroke-width:0.8;">0</text>
  </g>
  <text x="195.0" y="129.0" transform="matrix(6.123233995736766E-17,-1.0,1.0,6.123233995736766E-17,66.0,324.0)" title="Australian Centre for International Agricultural Research" style="fill:black;font-family:Helvetica;font-size:13.2px;font-weight:bold;">Australian Cent</text>
  <g>
   <rect x="184.0" y="140.0" width="22.0" height="22.0" style="fill:#000;"/>
   <text x="184.0" y="162.0" style="fill:orange;font-family:Helvetica;font-size:13.2px;stroke:orange;stroke-width:0.8;">1</text>
  </g>
  <text x="217.0" y="129.0" transform="matrix(6.123233995736766E-17,-1.0,1.0,6.123233995736766E-17,88.0,346.0)" title="Conselho Nacional de Desenvolvimento Científico e Tecnológico" style="fill:black;font-family:Helvetica;font-size:13.2px;font-weight:bold;">Conselho Nacion</text>
  <g>
   <rect x="206.0" y="140.0" width="22.0" height="22.0" style="fill:#000;"/>
   <text x="206.0" y="162.0" style="fill:orange;font-family:Helvetica;font-size:13.2px;stroke:orange;stroke-width:0.8;">1</text>
  </g>
  <text x="239.0" y="129.0" transform="matrix(6.123233995736766E-17,-1.0,1.0,6.123233995736766E-17,109.99999999999997,368.0)" title="Campus France" style="fill:black;font-family:Helvetica;font-size:13.2px;font-weight:bold;">Campus France</text>
  <g>
   <rect x="228.0" y="140.0" width="22.0" height="22.0" style="fill:#ffffff;"/>
   <text x="228.0" y="162.0" style="fill:orange;font-family:Helvetica;font-size:13.2px;stroke:orange;stroke-width:0.8;">0</text>
  </g>
  <text x="261.0" y="129.0" transform="matrix(6.123233995736766E-17,-1.0,1.0,6.123233995736766E-17,131.99999999999997,390.0)" title="Instituto de Tecnologia de Alimentos" style="fill:black;font-family:Helvetica;font-size:13.2px;font-weight:bold;">Instituto de Te</text>
  <g>
   <rect x="250.0" y="140.0" width="22.0" height="22.0" style="fill:#000;"/>
   <text x="250.0" y="162.0" style="fill:orange;font-family:Helvetica;font-size:13.2px;stroke:orange;stroke-width:0.8;">1</text>
  </g>
  <text x="283.0" y="129.0" transform="matrix(6.123233995736766E-17,-1.0,1.0,6.123233995736766E-17,153.99999999999997,412.0)" title="Coordenação de Aperfeiçoamento de Pessoal de Nível Superior" style="fill:black;font-family:Helvetica;font-size:13.2px;font-weight:bold;">Coordenação de </text>
  <g>
   <rect x="272.0" y="140.0" width="22.0" height="22.0" style="fill:#000;"/>
   <text x="272.0" y="162.0" style="fill:orange;font-family:Helvetica;font-size:13.2px;stroke:orange;stroke-width:0.8;">1</text>
  </g>
  <text x="305.0" y="129.0" transform="matrix(6.123233995736766E-17,-1.0,1.0,6.123233995736766E-17,175.99999999999997,434.0)" title="Universidade Federal do Piauí," style="fill:black;font-family:Helvetica;font-size:13.2px;font-weight:bold;">Universidade Fe</text>
  <g>
   <rect x="294.0" y="140.0" width="22.0" height="22.0" style="fill:#000;"/>
   <text x="294.0" y="162.0" style="fill:orange;font-family:Helvetica;font-size:13.2px;stroke:orange;stroke-width:0.8;">1</text>
  </g>
  <text x="327.0" y="129.0" transform="matrix(6.123233995736766E-17,-1.0,1.0,6.123233995736766E-17,197.99999999999997,456.0)" title="Fundação de Amparo à Pesquisa do Estado de São Paulo" style="fill:black;font-family:Helvetica;font-size:13.2px;font-weight:bold;">Fundação de Amp</text>
  <g>
   <rect x="316.0" y="140.0" width="22.0" height="22.0" style="fill:#000;"/>
   <text x="316.0" y="162.0" style="fill:orange;font-family:Helvetica;font-size:13.2px;stroke:orange;stroke-width:0.8;">1</text>
  </g>
  <text x="349.0" y="129.0" transform="matrix(6.123233995736766E-17,-1.0,1.0,6.123233995736766E-17,219.99999999999997,478.0)" title="Centre National de la Recherche Scientifique" style="fill:black;font-family:Helvetica;font-size:13.2px;font-weight:bold;">Centre National</text>
  <g>
   <rect x="338.0" y="140.0" width="22.0" height="22.0" style="fill:#ffffff;"/>
   <text x="338.0" y="162.0" style="fill:orange;font-family:Helvetica;font-size:13.2px;stroke:orange;stroke-width:0.8;">0</text>
  </g>
  <text x="371.0" y="129.0" transform="matrix(6.123233995736766E-17,-1.0,1.0,6.123233995736766E-17,241.99999999999997,500.0)" title="Universidade de São Paulo," style="fill:black;font-family:Helvetica;font-size:13.2px;font-weight:bold;">Universidade de</text>
  <g>
   <rect x="360.0" y="140.0" width="22.0" height="22.0" style="fill:#000;"/>
   <text x="360.0" y="162.0" style="fill:orange;font-family:Helvetica;font-size:13.2px;stroke:orange;stroke-width:0.8;">1</text>
  </g>
  <text x="10.0" y="184.0" title="Burkina Faso" style="fill:black;font-family:Helvetica;font-size:13.2px;font-weight:bold;">Burkina Faso</text>
  <g>
   <rect x="140.0" y="162.0" width="22.0" height="22.0" style="fill:#ffffff;"/>
   <text x="140.0" y="184.0" style="fill:orange;font-family:Helvetica;font-size:13.2px;stroke:orange;stroke-width:0.8;">0</text>
  </g>
  <g>
   <rect x="162.0" y="162.0" width="22.0" height="22.0" style="fill:#000;"/>
   <text x="162.0" y="184.0" style="fill:orange;font-family:Helvetica;font-size:13.2px;stroke:orange;stroke-width:0.8;">1</text>
  </g>
  <g>
   <rect x="184.0" y="162.0" width="22.0" height="22.0" style="fill:#ffffff;"/>
   <text x="184.0" y="184.0" style="fill:orange;font-family:Helvetica;font-size:13.2px;stroke:orange;stroke-width:0.8;">0</text>
  </g>
  <g>
   <rect x="206.0" y="162.0" width="22.0" height="22.0" style="fill:#ffffff;"/>
   <text x="206.0" y="184.0" style="fill:orange;font-family:Helvetica;font-size:13.2px;stroke:orange;stroke-width:0.8;">0</text>
  </g>
  <g>
   <rect x="228.0" y="162.0" width="22.0" height="22.0" style="fill:#000;"/>
   <text x="228.0" y="184.0" style="fill:orange;font-family:Helvetica;font-size:13.2px;stroke:orange;stroke-width:0.8;">1</text>
  </g>
  <g>
   <rect x="250.0" y="162.0" width="22.0" height="22.0" style="fill:#ffffff;"/>
   <text x="250.0" y="184.0" style="fill:orange;font-family:Helvetica;font-size:13.2px;stroke:orange;stroke-width:0.8;">0</text>
  </g>
  <g>
   <rect x="272.0" y="162.0" width="22.0" height="22.0" style="fill:#ffffff;"/>
   <text x="272.0" y="184.0" style="fill:orange;font-family:Helvetica;font-size:13.2px;stroke:orange;stroke-width:0.8;">0</text>
  </g>
  <g>
   <rect x="294.0" y="162.0" width="22.0" height="22.0" style="fill:#ffffff;"/>
   <text x="294.0" y="184.0" style="fill:orange;font-family:Helvetica;font-size:13.2px;stroke:orange;stroke-width:0.8;">0</text>
  </g>
  <g>
   <rect x="316.0" y="162.0" width="22.0" height="22.0" style="fill:#ffffff;"/>
   <text x="316.0" y="184.0" style="fill:orange;font-family:Helvetica;font-size:13.2px;stroke:orange;stroke-width:0.8;">0</text>
  </g>
  <g>
   <rect x="338.0" y="162.0" width="22.0" height="22.0" style="fill:#000;"/>
   <text x="338.0" y="184.0" style="fill:orange;font-family:Helvetica;font-size:13.2px;stroke:orange;stroke-width:0.8;">1</text>
  </g>
  <g>
   <rect x="360.0" y="162.0" width="22.0" height="22.0" style="fill:#ffffff;"/>
   <text x="360.0" y="184.0" style="fill:orange;font-family:Helvetica;font-size:13.2px;stroke:orange;stroke-width:0.8;">0</text>
  </g>
  <text x="10.0" y="206.0" title="France" style="fill:black;font-family:Helvetica;font-size:13.2px;font-weight:bold;">France</text>
  <g>
   <rect x="140.0" y="184.0" width="22.0" height="22.0" style="fill:#ffffff;"/>
   <text x="140.0" y="206.0" style="fill:orange;font-family:Helvetica;font-size:13.2px;stroke:orange;stroke-width:0.8;">0</text>
  </g>
  <g>
   <rect x="162.0" y="184.0" width="22.0" height="22.0" style="fill:#000;"/>
   <text x="162.0" y="206.0" style="fill:orange;font-family:Helvetica;font-size:13.2px;stroke:orange;stroke-width:0.8;">1</text>
  </g>
  <g>
   <rect x="184.0" y="184.0" width="22.0" height="22.0" style="fill:#ffffff;"/>
   <text x="184.0" y="206.0" style="fill:orange;font-family:Helvetica;font-size:13.2px;stroke:orange;stroke-width:0.8;">0</text>
  </g>
  <g>
   <rect x="206.0" y="184.0" width="22.0" height="22.0" style="fill:#ffffff;"/>
   <text x="206.0" y="206.0" style="fill:orange;font-family:Helvetica;font-size:13.2px;stroke:orange;stroke-width:0.8;">0</text>
  </g>
  <g>
   <rect x="228.0" y="184.0" width="22.0" height="22.0" style="fill:#000;"/>
   <text x="228.0" y="206.0" style="fill:orange;font-family:Helvetica;font-size:13.2px;stroke:orange;stroke-width:0.8;">1</text>
  </g>
  <g>
   <rect x="250.0" y="184.0" width="22.0" height="22.0" style="fill:#ffffff;"/>
   <text x="250.0" y="206.0" style="fill:orange;font-family:Helvetica;font-size:13.2px;stroke:orange;stroke-width:0.8;">0</text>
  </g>
  <g>
   <rect x="272.0" y="184.0" width="22.0" height="22.0" style="fill:#ffffff;"/>
   <text x="272.0" y="206.0" style="fill:orange;font-family:Helvetica;font-size:13.2px;stroke:orange;stroke-width:0.8;">0</text>
  </g>
  <g>
   <rect x="294.0" y="184.0" width="22.0" height="22.0" style="fill:#ffffff;"/>
   <text x="294.0" y="206.0" style="fill:orange;font-family:Helvetica;font-size:13.2px;stroke:orange;stroke-width:0.8;">0</text>
  </g>
  <g>
   <rect x="316.0" y="184.0" width="22.0" height="22.0" style="fill:#ffffff;"/>
   <text x="316.0" y="206.0" style="fill:orange;font-family:Helvetica;font-size:13.2px;stroke:orange;stroke-width:0.8;">0</text>
  </g>
  <g>
   <rect x="338.0" y="184.0" width="22.0" height="22.0" style="fill:#000;"/>
   <text x="338.0" y="206.0" style="fill:orange;font-family:Helvetica;font-size:13.2px;stroke:orange;stroke-width:0.8;">1</text>
  </g>
  <g>
   <rect x="360.0" y="184.0" width="22.0" height="22.0" style="fill:#ffffff;"/>
   <text x="360.0" y="206.0" style="fill:orange;font-family:Helvetica;font-size:13.2px;stroke:orange;stroke-width:0.8;">0</text>
  </g>
  <text x="10.0" y="228.0" title="Burkina Faso." style="fill:black;font-family:Helvetica;font-size:13.2px;font-weight:bold;">Burkina Faso.</text>
  <g>
   <rect x="140.0" y="206.0" width="22.0" height="22.0" style="fill:#ffffff;"/>
   <text x="140.0" y="228.0" style="fill:orange;font-family:Helvetica;font-size:13.2px;stroke:orange;stroke-width:0.8;">0</text>
  </g>
  <g>
   <rect x="162.0" y="206.0" width="22.0" height="22.0" style="fill:#000;"/>
   <text x="162.0" y="228.0" style="fill:orange;font-family:Helvetica;font-size:13.2px;stroke:orange;stroke-width:0.8;">1</text>
  </g>
  <g>
   <rect x="184.0" y="206.0" width="22.0" height="22.0" style="fill:#ffffff;"/>
   <text x="184.0" y="228.0" style="fill:orange;font-family:Helvetica;font-size:13.2px;stroke:orange;stroke-width:0.8;">0</text>
  </g>
  <g>
   <rect x="206.0" y="206.0" width="22.0" height="22.0" style="fill:#ffffff;"/>
   <text x="206.0" y="228.0" style="fill:orange;font-family:Helvetica;font-size:13.2px;stroke:orange;stroke-width:0.8;">0</text>
  </g>
  <g>
   <rect x="228.0" y="206.0" width="22.0" height="22.0" style="fill:#000;"/>
   <text x="228.0" y="228.0" style="fill:orange;font-family:Helvetica;font-size:13.2px;stroke:orange;stroke-width:0.8;">1</text>
  </g>
  <g>
   <rect x="250.0" y="206.0" width="22.0" height="22.0" style="fill:#ffffff;"/>
   <text x="250.0" y="228.0" style="fill:orange;font-family:Helvetica;font-size:13.2px;stroke:orange;stroke-width:0.8;">0</text>
  </g>
  <g>
   <rect x="272.0" y="206.0" width="22.0" height="22.0" style="fill:#ffffff;"/>
   <text x="272.0" y="228.0" style="fill:orange;font-family:Helvetica;font-size:13.2px;stroke:orange;stroke-width:0.8;">0</text>
  </g>
  <g>
   <rect x="294.0" y="206.0" width="22.0" height="22.0" style="fill:#ffffff;"/>
   <text x="294.0" y="228.0" style="fill:orange;font-family:Helvetica;font-size:13.2px;stroke:orange;stroke-width:0.8;">0</text>
  </g>
  <g>
   <rect x="316.0" y="206.0" width="22.0" height="22.0" style="fill:#ffffff;"/>
   <text x="316.0" y="228.0" style="fill:orange;font-family:Helvetica;font-size:13.2px;stroke:orange;stroke-width:0.8;">0</text>
  </g>
  <g>
   <rect x="338.0" y="206.0" width="22.0" height="22.0" style="fill:#000;"/>
   <text x="338.0" y="228.0" style="fill:orange;font-family:Helvetica;font-size:13.2px;stroke:orange;stroke-width:0.8;">1</text>
  </g>
  <g>
   <rect x="360.0" y="206.0" width="22.0" height="22.0" style="fill:#ffffff;"/>
   <text x="360.0" y="228.0" style="fill:orange;font-family:Helvetica;font-size:13.2px;stroke:orange;stroke-width:0.8;">0</text>
  </g>
  <text x="10.0" y="250.0" title="China" style="fill:black;font-family:Helvetica;font-size:13.2px;font-weight:bold;">China</text>
  <g>
   <rect x="140.0" y="228.0" width="22.0" height="22.0" style="fill:#ffffff;"/>
   <text x="140.0" y="250.0" style="fill:orange;font-family:Helvetica;font-size:13.2px;stroke:orange;stroke-width:0.8;">0</text>
  </g>
  <g>
   <rect x="162.0" y="228.0" width="22.0" height="22.0" style="fill:#ffffff;"/>
   <text x="162.0" y="250.0" style="fill:orange;font-family:Helvetica;font-size:13.2px;stroke:orange;stroke-width:0.8;">0</text>
  </g>
  <g>
   <rect x="184.0" y="228.0" width="22.0" height="22.0" style="fill:#ffffff;"/>
   <text x="184.0" y="250.0" style="fill:orange;font-family:Helvetica;font-size:13.2px;stroke:orange;stroke-width:0.8;">0</text>
  </g>
  <g>
   <rect x="206.0" y="228.0" width="22.0" height="22.0" style="fill:#ffffff;"/>
   <text x="206.0" y="250.0" style="fill:orange;font-family:Helvetica;font-size:13.2px;stroke:orange;stroke-width:0.8;">0</text>
  </g>
  <g>
   <rect x="228.0" y="228.0" width="22.0" height="22.0" style="fill:#ffffff;"/>
   <text x="228.0" y="250.0" style="fill:orange;font-family:Helvetica;font-size:13.2px;stroke:orange;stroke-width:0.8;">0</text>
  </g>
  <g>
   <rect x="250.0" y="228.0" width="22.0" height="22.0" style="fill:#ffffff;"/>
   <text x="250.0" y="250.0" style="fill:orange;font-family:Helvetica;font-size:13.2px;stroke:orange;stroke-width:0.8;">0</text>
  </g>
  <g>
   <rect x="272.0" y="228.0" width="22.0" height="22.0" style="fill:#ffffff;"/>
   <text x="272.0" y="250.0" style="fill:orange;font-family:Helvetica;font-size:13.2px;stroke:orange;stroke-width:0.8;">0</text>
  </g>
  <g>
   <rect x="294.0" y="228.0" width="22.0" height="22.0" style="fill:#000;"/>
   <text x="294.0" y="250.0" style="fill:orange;font-family:Helvetica;font-size:13.2px;stroke:orange;stroke-width:0.8;">1</text>
  </g>
  <g>
   <rect x="316.0" y="228.0" width="22.0" height="22.0" style="fill:#ffffff;"/>
   <text x="316.0" y="250.0" style="fill:orange;font-family:Helvetica;font-size:13.2px;stroke:orange;stroke-width:0.8;">0</text>
  </g>
  <g>
   <rect x="338.0" y="228.0" width="22.0" height="22.0" style="fill:#ffffff;"/>
   <text x="338.0" y="250.0" style="fill:orange;font-family:Helvetica;font-size:13.2px;stroke:orange;stroke-width:0.8;">0</text>
  </g>
  <g>
   <rect x="360.0" y="228.0" width="22.0" height="22.0" style="fill:#000;"/>
   <text x="360.0" y="250.0" style="fill:orange;font-family:Helvetica;font-size:13.2px;stroke:orange;stroke-width:0.8;">1</text>
  </g>
  <text x="10.0" y="272.0" title="Madagascar" style="fill:black;font-family:Helvetica;font-size:13.2px;font-weight:bold;">Madagascar</text>
  <g>
   <rect x="140.0" y="250.0" width="22.0" height="22.0" style="fill:#000;"/>
   <text x="140.0" y="272.0" style="fill:orange;font-family:Helvetica;font-size:13.2px;stroke:orange;stroke-width:0.8;">1</text>
  </g>
  <g>
   <rect x="162.0" y="250.0" width="22.0" height="22.0" style="fill:#ffffff;"/>
   <text x="162.0" y="272.0" style="fill:orange;font-family:Helvetica;font-size:13.2px;stroke:orange;stroke-width:0.8;">0</text>
  </g>
  <g>
   <rect x="184.0" y="250.0" width="22.0" height="22.0" style="fill:#000;"/>
   <text x="184.0" y="272.0" style="fill:orange;font-family:Helvetica;font-size:13.2px;stroke:orange;stroke-width:0.8;">1</text>
  </g>
  <g>
   <rect x="206.0" y="250.0" width="22.0" height="22.0" style="fill:#ffffff;"/>
   <text x="206.0" y="272.0" style="fill:orange;font-family:Helvetica;font-size:13.2px;stroke:orange;stroke-width:0.8;">0</text>
  </g>
  <g>
   <rect x="228.0" y="250.0" width="22.0" height="22.0" style="fill:#ffffff;"/>
   <text x="228.0" y="272.0" style="fill:orange;font-family:Helvetica;font-size:13.2px;stroke:orange;stroke-width:0.8;">0</text>
  </g>
  <g>
   <rect x="250.0" y="250.0" width="22.0" height="22.0" style="fill:#ffffff;"/>
   <text x="250.0" y="272.0" style="fill:orange;font-family:Helvetica;font-size:13.2px;stroke:orange;stroke-width:0.8;">0</text>
  </g>
  <g>
   <rect x="272.0" y="250.0" width="22.0" height="22.0" style="fill:#000;"/>
   <text x="272.0" y="272.0" style="fill:orange;font-family:Helvetica;font-size:13.2px;stroke:orange;stroke-width:0.8;">1</text>
  </g>
  <g>
   <rect x="294.0" y="250.0" width="22.0" height="22.0" style="fill:#000;"/>
   <text x="294.0" y="272.0" style="fill:orange;font-family:Helvetica;font-size:13.2px;stroke:orange;stroke-width:0.8;">1</text>
  </g>
  <g>
   <rect x="316.0" y="250.0" width="22.0" height="22.0" style="fill:#ffffff;"/>
   <text x="316.0" y="272.0" style="fill:orange;font-family:Helvetica;font-size:13.2px;stroke:orange;stroke-width:0.8;">0</text>
  </g>
  <g>
   <rect x="338.0" y="250.0" width="22.0" height="22.0" style="fill:#ffffff;"/>
   <text x="338.0" y="272.0" style="fill:orange;font-family:Helvetica;font-size:13.2px;stroke:orange;stroke-width:0.8;">0</text>
  </g>
  <g>
   <rect x="360.0" y="250.0" width="22.0" height="22.0" style="fill:#ffffff;"/>
   <text x="360.0" y="272.0" style="fill:orange;font-family:Helvetica;font-size:13.2px;stroke:orange;stroke-width:0.8;">0</text>
  </g>
  <text x="10.0" y="294.0" title="Croatia" style="fill:black;font-family:Helvetica;font-size:13.2px;font-weight:bold;">Croatia</text>
  <g>
   <rect x="140.0" y="272.0" width="22.0" height="22.0" style="fill:#ffffff;"/>
   <text x="140.0" y="294.0" style="fill:orange;font-family:Helvetica;font-size:13.2px;stroke:orange;stroke-width:0.8;">0</text>
  </g>
  <g>
   <rect x="162.0" y="272.0" width="22.0" height="22.0" style="fill:#ffffff;"/>
   <text x="162.0" y="294.0" style="fill:orange;font-family:Helvetica;font-size:13.2px;stroke:orange;stroke-width:0.8;">0</text>
  </g>
  <g>
   <rect x="184.0" y="272.0" width="22.0" height="22.0" style="fill:#ffffff;"/>
   <text x="184.0" y="294.0" style="fill:orange;font-family:Helvetica;font-size:13.2px;stroke:orange;stroke-width:0.8;">0</text>
  </g>
  <g>
   <rect x="206.0" y="272.0" width="22.0" height="22.0" style="fill:#ffffff;"/>
   <text x="206.0" y="294.0" style="fill:orange;font-family:Helvetica;font-size:13.2px;stroke:orange;stroke-width:0.8;">0</text>
  </g>
  <g>
   <rect x="228.0" y="272.0" width="22.0" height="22.0" style="fill:#ffffff;"/>
   <text x="228.0" y="294.0" style="fill:orange;font-family:Helvetica;font-size:13.2px;stroke:orange;stroke-width:0.8;">0</text>
  </g>
  <g>
   <rect x="250.0" y="272.0" width="22.0" height="22.0" style="fill:#ffffff;"/>
   <text x="250.0" y="294.0" style="fill:orange;font-family:Helvetica;font-size:13.2px;stroke:orange;stroke-width:0.8;">0</text>
  </g>
  <g>
   <rect x="272.0" y="272.0" width="22.0" height="22.0" style="fill:#ffffff;"/>
   <text x="272.0" y="294.0" style="fill:orange;font-family:Helvetica;font-size:13.2px;stroke:orange;stroke-width:0.8;">0</text>
  </g>
  <g>
   <rect x="294.0" y="272.0" width="22.0" height="22.0" style="fill:#ffffff;"/>
   <text x="294.0" y="294.0" style="fill:orange;font-family:Helvetica;font-size:13.2px;stroke:orange;stroke-width:0.8;">0</text>
  </g>
  <g>
   <rect x="316.0" y="272.0" width="22.0" height="22.0" style="fill:#ffffff;"/>
   <text x="316.0" y="294.0" style="fill:orange;font-family:Helvetica;font-size:13.2px;stroke:orange;stroke-width:0.8;">0</text>
  </g>
  <g>
   <rect x="338.0" y="272.0" width="22.0" height="22.0" style="fill:#ffffff;"/>
   <text x="338.0" y="294.0" style="fill:orange;font-family:Helvetica;font-size:13.2px;stroke:orange;stroke-width:0.8;">0</text>
  </g>
  <g>
   <rect x="360.0" y="272.0" width="22.0" height="22.0" style="fill:#ffffff;"/>
   <text x="360.0" y="294.0" style="fill:orange;font-family:Helvetica;font-size:13.2px;stroke:orange;stroke-width:0.8;">0</text>
  </g>
  <text x="10.0" y="316.0" title="Cameroon" style="fill:black;font-family:Helvetica;font-size:13.2px;font-weight:bold;">Cameroon</text>
  <g>
   <rect x="140.0" y="294.0" width="22.0" height="22.0" style="fill:#ffffff;"/>
   <text x="140.0" y="316.0" style="fill:orange;font-family:Helvetica;font-size:13.2px;stroke:orange;stroke-width:0.8;">0</text>
  </g>
  <g>
   <rect x="162.0" y="294.0" width="22.0" height="22.0" style="fill:#ffffff;"/>
   <text x="162.0" y="316.0" style="fill:orange;font-family:Helvetica;font-size:13.2px;stroke:orange;stroke-width:0.8;">0</text>
  </g>
  <g>
   <rect x="184.0" y="294.0" width="22.0" height="22.0" style="fill:#ffffff;"/>
   <text x="184.0" y="316.0" style="fill:orange;font-family:Helvetica;font-size:13.2px;stroke:orange;stroke-width:0.8;">0</text>
  </g>
  <g>
   <rect x="206.0" y="294.0" width="22.0" height="22.0" style="fill:#ffffff;"/>
   <text x="206.0" y="316.0" style="fill:orange;font-family:Helvetica;font-size:13.2px;stroke:orange;stroke-width:0.8;">0</text>
  </g>
  <g>
   <rect x="228.0" y="294.0" width="22.0" height="22.0" style="fill:#ffffff;"/>
   <text x="228.0" y="316.0" style="fill:orange;font-family:Helvetica;font-size:13.2px;stroke:orange;stroke-width:0.8;">0</text>
  </g>
  <g>
   <rect x="250.0" y="294.0" width="22.0" height="22.0" style="fill:#ffffff;"/>
   <text x="250.0" y="316.0" style="fill:orange;font-family:Helvetica;font-size:13.2px;stroke:orange;stroke-width:0.8;">0</text>
  </g>
  <g>
   <rect x="272.0" y="294.0" width="22.0" height="22.0" style="fill:#ffffff;"/>
   <text x="272.0" y="316.0" style="fill:orange;font-family:Helvetica;font-size:13.2px;stroke:orange;stroke-width:0.8;">0</text>
  </g>
  <g>
   <rect x="294.0" y="294.0" width="22.0" height="22.0" style="fill:#000;"/>
   <text x="294.0" y="316.0" style="fill:orange;font-family:Helvetica;font-size:13.2px;stroke:orange;stroke-width:0.8;">1</text>
  </g>
  <g>
   <rect x="316.0" y="294.0" width="22.0" height="22.0" style="fill:#ffffff;"/>
   <text x="316.0" y="316.0" style="fill:orange;font-family:Helvetica;font-size:13.2px;stroke:orange;stroke-width:0.8;">0</text>
  </g>
  <g>
   <rect x="338.0" y="294.0" width="22.0" height="22.0" style="fill:#ffffff;"/>
   <text x="338.0" y="316.0" style="fill:orange;font-family:Helvetica;font-size:13.2px;stroke:orange;stroke-width:0.8;">0</text>
  </g>
  <g>
   <rect x="360.0" y="294.0" width="22.0" height="22.0" style="fill:#ffffff;"/>
   <text x="360.0" y="316.0" style="fill:orange;font-family:Helvetica;font-size:13.2px;stroke:orange;stroke-width:0.8;">0</text>
  </g>
  <text x="10.0" y="338.0" title="Sri Lanka" style="fill:black;font-family:Helvetica;font-size:13.2px;font-weight:bold;">Sri Lanka</text>
  <g>
   <rect x="140.0" y="316.0" width="22.0" height="22.0" style="fill:#000;"/>
   <text x="140.0" y="338.0" style="fill:orange;font-family:Helvetica;font-size:13.2px;stroke:orange;stroke-width:0.8;">1</text>
  </g>
  <g>
   <rect x="162.0" y="316.0" width="22.0" height="22.0" style="fill:#ffffff;"/>
   <text x="162.0" y="338.0" style="fill:orange;font-family:Helvetica;font-size:13.2px;stroke:orange;stroke-width:0.8;">0</text>
  </g>
  <g>
   <rect x="184.0" y="316.0" width="22.0" height="22.0" style="fill:#000;"/>
   <text x="184.0" y="338.0" style="fill:orange;font-family:Helvetica;font-size:13.2px;stroke:orange;stroke-width:0.8;">1</text>
  </g>
  <g>
   <rect x="206.0" y="316.0" width="22.0" height="22.0" style="fill:#ffffff;"/>
   <text x="206.0" y="338.0" style="fill:orange;font-family:Helvetica;font-size:13.2px;stroke:orange;stroke-width:0.8;">0</text>
  </g>
  <g>
   <rect x="228.0" y="316.0" width="22.0" height="22.0" style="fill:#ffffff;"/>
   <text x="228.0" y="338.0" style="fill:orange;font-family:Helvetica;font-size:13.2px;stroke:orange;stroke-width:0.8;">0</text>
  </g>
  <g>
   <rect x="250.0" y="316.0" width="22.0" height="22.0" style="fill:#ffffff;"/>
   <text x="250.0" y="338.0" style="fill:orange;font-family:Helvetica;font-size:13.2px;stroke:orange;stroke-width:0.8;">0</text>
  </g>
  <g>
   <rect x="272.0" y="316.0" width="22.0" height="22.0" style="fill:#000;"/>
   <text x="272.0" y="338.0" style="fill:orange;font-family:Helvetica;font-size:13.2px;stroke:orange;stroke-width:0.8;">1</text>
  </g>
  <g>
   <rect x="294.0" y="316.0" width="22.0" height="22.0" style="fill:#ffffff;"/>
   <text x="294.0" y="338.0" style="fill:orange;font-family:Helvetica;font-size:13.2px;stroke:orange;stroke-width:0.8;">0</text>
  </g>
  <g>
   <rect x="316.0" y="316.0" width="22.0" height="22.0" style="fill:#ffffff;"/>
   <text x="316.0" y="338.0" style="fill:orange;font-family:Helvetica;font-size:13.2px;stroke:orange;stroke-width:0.8;">0</text>
  </g>
  <g>
   <rect x="338.0" y="316.0" width="22.0" height="22.0" style="fill:#ffffff;"/>
   <text x="338.0" y="338.0" style="fill:orange;font-family:Helvetica;font-size:13.2px;stroke:orange;stroke-width:0.8;">0</text>
  </g>
  <g>
   <rect x="360.0" y="316.0" width="22.0" height="22.0" style="fill:#ffffff;"/>
   <text x="360.0" y="338.0" style="fill:orange;font-family:Helvetica;font-size:13.2px;stroke:orange;stroke-width:0.8;">0</text>
  </g>
  <text x="10.0" y="360.0" title="Bosnia and Herzegovina," style="fill:black;font-family:Helvetica;font-size:13.2px;font-weight:bold;">Bosnia and Herz</text>
  <g>
   <rect x="140.0" y="338.0" width="22.0" height="22.0" style="fill:#ffffff;"/>
   <text x="140.0" y="360.0" style="fill:orange;font-family:Helvetica;font-size:13.2px;stroke:orange;stroke-width:0.8;">0</text>
  </g>
  <g>
   <rect x="162.0" y="338.0" width="22.0" height="22.0" style="fill:#ffffff;"/>
   <text x="162.0" y="360.0" style="fill:orange;font-family:Helvetica;font-size:13.2px;stroke:orange;stroke-width:0.8;">0</text>
  </g>
  <g>
   <rect x="184.0" y="338.0" width="22.0" height="22.0" style="fill:#ffffff;"/>
   <text x="184.0" y="360.0" style="fill:orange;font-family:Helvetica;font-size:13.2px;stroke:orange;stroke-width:0.8;">0</text>
  </g>
  <g>
   <rect x="206.0" y="338.0" width="22.0" height="22.0" style="fill:#ffffff;"/>
   <text x="206.0" y="360.0" style="fill:orange;font-family:Helvetica;font-size:13.2px;stroke:orange;stroke-width:0.8;">0</text>
  </g>
  <g>
   <rect x="228.0" y="338.0" width="22.0" height="22.0" style="fill:#ffffff;"/>
   <text x="228.0" y="360.0" style="fill:orange;font-family:Helvetica;font-size:13.2px;stroke:orange;stroke-width:0.8;">0</text>
  </g>
  <g>
   <rect x="250.0" y="338.0" width="22.0" height="22.0" style="fill:#ffffff;"/>
   <text x="250.0" y="360.0" style="fill:orange;font-family:Helvetica;font-size:13.2px;stroke:orange;stroke-width:0.8;">0</text>
  </g>
  <g>
   <rect x="272.0" y="338.0" width="22.0" height="22.0" style="fill:#ffffff;"/>
   <text x="272.0" y="360.0" style="fill:orange;font-family:Helvetica;font-size:13.2px;stroke:orange;stroke-width:0.8;">0</text>
  </g>
  <g>
   <rect x="294.0" y="338.0" width="22.0" height="22.0" style="fill:#ffffff;"/>
   <text x="294.0" y="360.0" style="fill:orange;font-family:Helvetica;font-size:13.2px;stroke:orange;stroke-width:0.8;">0</text>
  </g>
  <g>
   <rect x="316.0" y="338.0" width="22.0" height="22.0" style="fill:#ffffff;"/>
   <text x="316.0" y="360.0" style="fill:orange;font-family:Helvetica;font-size:13.2px;stroke:orange;stroke-width:0.8;">0</text>
  </g>
  <g>
   <rect x="338.0" y="338.0" width="22.0" height="22.0" style="fill:#ffffff;"/>
   <text x="338.0" y="360.0" style="fill:orange;font-family:Helvetica;font-size:13.2px;stroke:orange;stroke-width:0.8;">0</text>
  </g>
  <g>
   <rect x="360.0" y="338.0" width="22.0" height="22.0" style="fill:#ffffff;"/>
   <text x="360.0" y="360.0" style="fill:orange;font-family:Helvetica;font-size:13.2px;stroke:orange;stroke-width:0.8;">0</text>
  </g>
  <text x="10.0" y="382.0" title="Congo" style="fill:black;font-family:Helvetica;font-size:13.2px;font-weight:bold;">Congo</text>
  <g>
   <rect x="140.0" y="360.0" width="22.0" height="22.0" style="fill:#ffffff;"/>
   <text x="140.0" y="382.0" style="fill:orange;font-family:Helvetica;font-size:13.2px;stroke:orange;stroke-width:0.8;">0</text>
  </g>
  <g>
   <rect x="162.0" y="360.0" width="22.0" height="22.0" style="fill:#000;"/>
   <text x="162.0" y="382.0" style="fill:orange;font-family:Helvetica;font-size:13.2px;stroke:orange;stroke-width:0.8;">1</text>
  </g>
  <g>
   <rect x="184.0" y="360.0" width="22.0" height="22.0" style="fill:#ffffff;"/>
   <text x="184.0" y="382.0" style="fill:orange;font-family:Helvetica;font-size:13.2px;stroke:orange;stroke-width:0.8;">0</text>
  </g>
  <g>
   <rect x="206.0" y="360.0" width="22.0" height="22.0" style="fill:#ffffff;"/>
   <text x="206.0" y="382.0" style="fill:orange;font-family:Helvetica;font-size:13.2px;stroke:orange;stroke-width:0.8;">0</text>
  </g>
  <g>
   <rect x="228.0" y="360.0" width="22.0" height="22.0" style="fill:#000;"/>
   <text x="228.0" y="382.0" style="fill:orange;font-family:Helvetica;font-size:13.2px;stroke:orange;stroke-width:0.8;">1</text>
  </g>
  <g>
   <rect x="250.0" y="360.0" width="22.0" height="22.0" style="fill:#ffffff;"/>
   <text x="250.0" y="382.0" style="fill:orange;font-family:Helvetica;font-size:13.2px;stroke:orange;stroke-width:0.8;">0</text>
  </g>
  <g>
   <rect x="272.0" y="360.0" width="22.0" height="22.0" style="fill:#ffffff;"/>
   <text x="272.0" y="382.0" style="fill:orange;font-family:Helvetica;font-size:13.2px;stroke:orange;stroke-width:0.8;">0</text>
  </g>
  <g>
   <rect x="294.0" y="360.0" width="22.0" height="22.0" style="fill:#ffffff;"/>
   <text x="294.0" y="382.0" style="fill:orange;font-family:Helvetica;font-size:13.2px;stroke:orange;stroke-width:0.8;">0</text>
  </g>
  <g>
   <rect x="316.0" y="360.0" width="22.0" height="22.0" style="fill:#ffffff;"/>
   <text x="316.0" y="382.0" style="fill:orange;font-family:Helvetica;font-size:13.2px;stroke:orange;stroke-width:0.8;">0</text>
  </g>
  <g>
   <rect x="338.0" y="360.0" width="22.0" height="22.0" style="fill:#000;"/>
   <text x="338.0" y="382.0" style="fill:orange;font-family:Helvetica;font-size:13.2px;stroke:orange;stroke-width:0.8;">1</text>
  </g>
  <g>
   <rect x="360.0" y="360.0" width="22.0" height="22.0" style="fill:#ffffff;"/>
   <text x="360.0" y="382.0" style="fill:orange;font-family:Helvetica;font-size:13.2px;stroke:orange;stroke-width:0.8;">0</text>
  </g>
  <text x="10.0" y="404.0" title="India" style="fill:black;font-family:Helvetica;font-size:13.2px;font-weight:bold;">India</text>
  <g>
   <rect x="140.0" y="382.0" width="22.0" height="22.0" style="fill:#ffffff;"/>
   <text x="140.0" y="404.0" style="fill:orange;font-family:Helvetica;font-size:13.2px;stroke:orange;stroke-width:0.8;">0</text>
  </g>
  <g>
   <rect x="162.0" y="382.0" width="22.0" height="22.0" style="fill:#ffffff;"/>
   <text x="162.0" y="404.0" style="fill:orange;font-family:Helvetica;font-size:13.2px;stroke:orange;stroke-width:0.8;">0</text>
  </g>
  <g>
   <rect x="184.0" y="382.0" width="22.0" height="22.0" style="fill:#ffffff;"/>
   <text x="184.0" y="404.0" style="fill:orange;font-family:Helvetica;font-size:13.2px;stroke:orange;stroke-width:0.8;">0</text>
  </g>
  <g>
   <rect x="206.0" y="382.0" width="22.0" height="22.0" style="fill:#ffffff;"/>
   <text x="206.0" y="404.0" style="fill:orange;font-family:Helvetica;font-size:13.2px;stroke:orange;stroke-width:0.8;">0</text>
  </g>
  <g>
   <rect x="228.0" y="382.0" width="22.0" height="22.0" style="fill:#ffffff;"/>
   <text x="228.0" y="404.0" style="fill:orange;font-family:Helvetica;font-size:13.2px;stroke:orange;stroke-width:0.8;">0</text>
  </g>
  <g>
   <rect x="250.0" y="382.0" width="22.0" height="22.0" style="fill:#ffffff;"/>
   <text x="250.0" y="404.0" style="fill:orange;font-family:Helvetica;font-size:13.2px;stroke:orange;stroke-width:0.8;">0</text>
  </g>
  <g>
   <rect x="272.0" y="382.0" width="22.0" height="22.0" style="fill:#ffffff;"/>
   <text x="272.0" y="404.0" style="fill:orange;font-family:Helvetica;font-size:13.2px;stroke:orange;stroke-width:0.8;">0</text>
  </g>
  <g>
   <rect x="294.0" y="382.0" width="22.0" height="22.0" style="fill:#000;"/>
   <text x="294.0" y="404.0" style="fill:orange;font-family:Helvetica;font-size:13.2px;stroke:orange;stroke-width:0.8;">1</text>
  </g>
  <g>
   <rect x="316.0" y="382.0" width="22.0" height="22.0" style="fill:#ffffff;"/>
   <text x="316.0" y="404.0" style="fill:orange;font-family:Helvetica;font-size:13.2px;stroke:orange;stroke-width:0.8;">0</text>
  </g>
  <g>
   <rect x="338.0" y="382.0" width="22.0" height="22.0" style="fill:#ffffff;"/>
   <text x="338.0" y="404.0" style="fill:orange;font-family:Helvetica;font-size:13.2px;stroke:orange;stroke-width:0.8;">0</text>
  </g>
  <g>
   <rect x="360.0" y="382.0" width="22.0" height="22.0" style="fill:#ffffff;"/>
   <text x="360.0" y="404.0" style="fill:orange;font-family:Helvetica;font-size:13.2px;stroke:orange;stroke-width:0.8;">0</text>
  </g>
  <text x="10.0" y="426.0" title="Burkina Faso," style="fill:black;font-family:Helvetica;font-size:13.2px;font-weight:bold;">Burkina Faso,</text>
  <g>
   <rect x="140.0" y="404.0" width="22.0" height="22.0" style="fill:#ffffff;"/>
   <text x="140.0" y="426.0" style="fill:orange;font-family:Helvetica;font-size:13.2px;stroke:orange;stroke-width:0.8;">0</text>
  </g>
  <g>
   <rect x="162.0" y="404.0" width="22.0" height="22.0" style="fill:#000;"/>
   <text x="162.0" y="426.0" style="fill:orange;font-family:Helvetica;font-size:13.2px;stroke:orange;stroke-width:0.8;">1</text>
  </g>
  <g>
   <rect x="184.0" y="404.0" width="22.0" height="22.0" style="fill:#ffffff;"/>
   <text x="184.0" y="426.0" style="fill:orange;font-family:Helvetica;font-size:13.2px;stroke:orange;stroke-width:0.8;">0</text>
  </g>
  <g>
   <rect x="206.0" y="404.0" width="22.0" height="22.0" style="fill:#ffffff;"/>
   <text x="206.0" y="426.0" style="fill:orange;font-family:Helvetica;font-size:13.2px;stroke:orange;stroke-width:0.8;">0</text>
  </g>
  <g>
   <rect x="228.0" y="404.0" width="22.0" height="22.0" style="fill:#000;"/>
   <text x="228.0" y="426.0" style="fill:orange;font-family:Helvetica;font-size:13.2px;stroke:orange;stroke-width:0.8;">1</text>
  </g>
  <g>
   <rect x="250.0" y="404.0" width="22.0" height="22.0" style="fill:#ffffff;"/>
   <text x="250.0" y="426.0" style="fill:orange;font-family:Helvetica;font-size:13.2px;stroke:orange;stroke-width:0.8;">0</text>
  </g>
  <g>
   <rect x="272.0" y="404.0" width="22.0" height="22.0" style="fill:#ffffff;"/>
   <text x="272.0" y="426.0" style="fill:orange;font-family:Helvetica;font-size:13.2px;stroke:orange;stroke-width:0.8;">0</text>
  </g>
  <g>
   <rect x="294.0" y="404.0" width="22.0" height="22.0" style="fill:#ffffff;"/>
   <text x="294.0" y="426.0" style="fill:orange;font-family:Helvetica;font-size:13.2px;stroke:orange;stroke-width:0.8;">0</text>
  </g>
  <g>
   <rect x="316.0" y="404.0" width="22.0" height="22.0" style="fill:#ffffff;"/>
   <text x="316.0" y="426.0" style="fill:orange;font-family:Helvetica;font-size:13.2px;stroke:orange;stroke-width:0.8;">0</text>
  </g>
  <g>
   <rect x="338.0" y="404.0" width="22.0" height="22.0" style="fill:#000;"/>
   <text x="338.0" y="426.0" style="fill:orange;font-family:Helvetica;font-size:13.2px;stroke:orange;stroke-width:0.8;">1</text>
  </g>
  <g>
   <rect x="360.0" y="404.0" width="22.0" height="22.0" style="fill:#ffffff;"/>
   <text x="360.0" y="426.0" style="fill:orange;font-family:Helvetica;font-size:13.2px;stroke:orange;stroke-width:0.8;">0</text>
  </g>
  <text x="10.0" y="448.0" title="Turkey" style="fill:black;font-family:Helvetica;font-size:13.2px;font-weight:bold;">Turkey</text>
  <g>
   <rect x="140.0" y="426.0" width="22.0" height="22.0" style="fill:#ffffff;"/>
   <text x="140.0" y="448.0" style="fill:orange;font-family:Helvetica;font-size:13.2px;stroke:orange;stroke-width:0.8;">0</text>
  </g>
  <g>
   <rect x="162.0" y="426.0" width="22.0" height="22.0" style="fill:#ffffff;"/>
   <text x="162.0" y="448.0" style="fill:orange;font-family:Helvetica;font-size:13.2px;stroke:orange;stroke-width:0.8;">0</text>
  </g>
  <g>
   <rect x="184.0" y="426.0" width="22.0" height="22.0" style="fill:#ffffff;"/>
   <text x="184.0" y="448.0" style="fill:orange;font-family:Helvetica;font-size:13.2px;stroke:orange;stroke-width:0.8;">0</text>
  </g>
  <g>
   <rect x="206.0" y="426.0" width="22.0" height="22.0" style="fill:#ffffff;"/>
   <text x="206.0" y="448.0" style="fill:orange;font-family:Helvetica;font-size:13.2px;stroke:orange;stroke-width:0.8;">0</text>
  </g>
  <g>
   <rect x="228.0" y="426.0" width="22.0" height="22.0" style="fill:#ffffff;"/>
   <text x="228.0" y="448.0" style="fill:orange;font-family:Helvetica;font-size:13.2px;stroke:orange;stroke-width:0.8;">0</text>
  </g>
  <g>
   <rect x="250.0" y="426.0" width="22.0" height="22.0" style="fill:#ffffff;"/>
   <text x="250.0" y="448.0" style="fill:orange;font-family:Helvetica;font-size:13.2px;stroke:orange;stroke-width:0.8;">0</text>
  </g>
  <g>
   <rect x="272.0" y="426.0" width="22.0" height="22.0" style="fill:#ffffff;"/>
   <text x="272.0" y="448.0" style="fill:orange;font-family:Helvetica;font-size:13.2px;stroke:orange;stroke-width:0.8;">0</text>
  </g>
  <g>
   <rect x="294.0" y="426.0" width="22.0" height="22.0" style="fill:#ffffff;"/>
   <text x="294.0" y="448.0" style="fill:orange;font-family:Helvetica;font-size:13.2px;stroke:orange;stroke-width:0.8;">0</text>
  </g>
  <g>
   <rect x="316.0" y="426.0" width="22.0" height="22.0" style="fill:#ffffff;"/>
   <text x="316.0" y="448.0" style="fill:orange;font-family:Helvetica;font-size:13.2px;stroke:orange;stroke-width:0.8;">0</text>
  </g>
  <g>
   <rect x="338.0" y="426.0" width="22.0" height="22.0" style="fill:#ffffff;"/>
   <text x="338.0" y="448.0" style="fill:orange;font-family:Helvetica;font-size:13.2px;stroke:orange;stroke-width:0.8;">0</text>
  </g>
  <g>
   <rect x="360.0" y="426.0" width="22.0" height="22.0" style="fill:#ffffff;"/>
   <text x="360.0" y="448.0" style="fill:orange;font-family:Helvetica;font-size:13.2px;stroke:orange;stroke-width:0.8;">0</text>
  </g>
  <text x="10.0" y="470.0" title="Mozambique" style="fill:black;font-family:Helvetica;font-size:13.2px;font-weight:bold;">Mozambique</text>
  <g>
   <rect x="140.0" y="448.0" width="22.0" height="22.0" style="fill:#ffffff;"/>
   <text x="140.0" y="470.0" style="fill:orange;font-family:Helvetica;font-size:13.2px;stroke:orange;stroke-width:0.8;">0</text>
  </g>
  <g>
   <rect x="162.0" y="448.0" width="22.0" height="22.0" style="fill:#000;"/>
   <text x="162.0" y="470.0" style="fill:orange;font-family:Helvetica;font-size:13.2px;stroke:orange;stroke-width:0.8;">1</text>
  </g>
  <g>
   <rect x="184.0" y="448.0" width="22.0" height="22.0" style="fill:#ffffff;"/>
   <text x="184.0" y="470.0" style="fill:orange;font-family:Helvetica;font-size:13.2px;stroke:orange;stroke-width:0.8;">0</text>
  </g>
  <g>
   <rect x="206.0" y="448.0" width="22.0" height="22.0" style="fill:#ffffff;"/>
   <text x="206.0" y="470.0" style="fill:orange;font-family:Helvetica;font-size:13.2px;stroke:orange;stroke-width:0.8;">0</text>
  </g>
  <g>
   <rect x="228.0" y="448.0" width="22.0" height="22.0" style="fill:#000;"/>
   <text x="228.0" y="470.0" style="fill:orange;font-family:Helvetica;font-size:13.2px;stroke:orange;stroke-width:0.8;">1</text>
  </g>
  <g>
   <rect x="250.0" y="448.0" width="22.0" height="22.0" style="fill:#ffffff;"/>
   <text x="250.0" y="470.0" style="fill:orange;font-family:Helvetica;font-size:13.2px;stroke:orange;stroke-width:0.8;">0</text>
  </g>
  <g>
   <rect x="272.0" y="448.0" width="22.0" height="22.0" style="fill:#ffffff;"/>
   <text x="272.0" y="470.0" style="fill:orange;font-family:Helvetica;font-size:13.2px;stroke:orange;stroke-width:0.8;">0</text>
  </g>
  <g>
   <rect x="294.0" y="448.0" width="22.0" height="22.0" style="fill:#ffffff;"/>
   <text x="294.0" y="470.0" style="fill:orange;font-family:Helvetica;font-size:13.2px;stroke:orange;stroke-width:0.8;">0</text>
  </g>
  <g>
   <rect x="316.0" y="448.0" width="22.0" height="22.0" style="fill:#ffffff;"/>
   <text x="316.0" y="470.0" style="fill:orange;font-family:Helvetica;font-size:13.2px;stroke:orange;stroke-width:0.8;">0</text>
  </g>
  <g>
   <rect x="338.0" y="448.0" width="22.0" height="22.0" style="fill:#000;"/>
   <text x="338.0" y="470.0" style="fill:orange;font-family:Helvetica;font-size:13.2px;stroke:orange;stroke-width:0.8;">1</text>
  </g>
  <g>
   <rect x="360.0" y="448.0" width="22.0" height="22.0" style="fill:#ffffff;"/>
   <text x="360.0" y="470.0" style="fill:orange;font-family:Helvetica;font-size:13.2px;stroke:orange;stroke-width:0.8;">0</text>
  </g>
  <text x="10.0" y="492.0" title="Italy" style="fill:black;font-family:Helvetica;font-size:13.2px;font-weight:bold;">Italy</text>
  <g>
   <rect x="140.0" y="470.0" width="22.0" height="22.0" style="fill:#ffffff;"/>
   <text x="140.0" y="492.0" style="fill:orange;font-family:Helvetica;font-size:13.2px;stroke:orange;stroke-width:0.8;">0</text>
  </g>
  <g>
   <rect x="162.0" y="470.0" width="22.0" height="22.0" style="fill:#ffffff;"/>
   <text x="162.0" y="492.0" style="fill:orange;font-family:Helvetica;font-size:13.2px;stroke:orange;stroke-width:0.8;">0</text>
  </g>
  <g>
   <rect x="184.0" y="470.0" width="22.0" height="22.0" style="fill:#ffffff;"/>
   <text x="184.0" y="492.0" style="fill:orange;font-family:Helvetica;font-size:13.2px;stroke:orange;stroke-width:0.8;">0</text>
  </g>
  <g>
   <rect x="206.0" y="470.0" width="22.0" height="22.0" style="fill:#ffffff;"/>
   <text x="206.0" y="492.0" style="fill:orange;font-family:Helvetica;font-size:13.2px;stroke:orange;stroke-width:0.8;">0</text>
  </g>
  <g>
   <rect x="228.0" y="470.0" width="22.0" height="22.0" style="fill:#ffffff;"/>
   <text x="228.0" y="492.0" style="fill:orange;font-family:Helvetica;font-size:13.2px;stroke:orange;stroke-width:0.8;">0</text>
  </g>
  <g>
   <rect x="250.0" y="470.0" width="22.0" height="22.0" style="fill:#ffffff;"/>
   <text x="250.0" y="492.0" style="fill:orange;font-family:Helvetica;font-size:13.2px;stroke:orange;stroke-width:0.8;">0</text>
  </g>
  <g>
   <rect x="272.0" y="470.0" width="22.0" height="22.0" style="fill:#ffffff;"/>
   <text x="272.0" y="492.0" style="fill:orange;font-family:Helvetica;font-size:13.2px;stroke:orange;stroke-width:0.8;">0</text>
  </g>
  <g>
   <rect x="294.0" y="470.0" width="22.0" height="22.0" style="fill:#ffffff;"/>
   <text x="294.0" y="492.0" style="fill:orange;font-family:Helvetica;font-size:13.2px;stroke:orange;stroke-width:0.8;">0</text>
  </g>
  <g>
   <rect x="316.0" y="470.0" width="22.0" height="22.0" style="fill:#ffffff;"/>
   <text x="316.0" y="492.0" style="fill:orange;font-family:Helvetica;font-size:13.2px;stroke:orange;stroke-width:0.8;">0</text>
  </g>
  <g>
   <rect x="338.0" y="470.0" width="22.0" height="22.0" style="fill:#ffffff;"/>
   <text x="338.0" y="492.0" style="fill:orange;font-family:Helvetica;font-size:13.2px;stroke:orange;stroke-width:0.8;">0</text>
  </g>
  <g>
   <rect x="360.0" y="470.0" width="22.0" height="22.0" style="fill:#ffffff;"/>
   <text x="360.0" y="492.0" style="fill:orange;font-family:Helvetica;font-size:13.2px;stroke:orange;stroke-width:0.8;">0</text>
  </g>
  <text x="10.0" y="514.0" title="Mexico" style="fill:black;font-family:Helvetica;font-size:13.2px;font-weight:bold;">Mexico</text>
  <g>
   <rect x="140.0" y="492.0" width="22.0" height="22.0" style="fill:#ffffff;"/>
   <text x="140.0" y="514.0" style="fill:orange;font-family:Helvetica;font-size:13.2px;stroke:orange;stroke-width:0.8;">0</text>
  </g>
  <g>
   <rect x="162.0" y="492.0" width="22.0" height="22.0" style="fill:#ffffff;"/>
   <text x="162.0" y="514.0" style="fill:orange;font-family:Helvetica;font-size:13.2px;stroke:orange;stroke-width:0.8;">0</text>
  </g>
  <g>
   <rect x="184.0" y="492.0" width="22.0" height="22.0" style="fill:#ffffff;"/>
   <text x="184.0" y="514.0" style="fill:orange;font-family:Helvetica;font-size:13.2px;stroke:orange;stroke-width:0.8;">0</text>
  </g>
  <g>
   <rect x="206.0" y="492.0" width="22.0" height="22.0" style="fill:#000;"/>
   <text x="206.0" y="514.0" style="fill:orange;font-family:Helvetica;font-size:13.2px;stroke:orange;stroke-width:0.8;">1</text>
  </g>
  <g>
   <rect x="228.0" y="492.0" width="22.0" height="22.0" style="fill:#ffffff;"/>
   <text x="228.0" y="514.0" style="fill:orange;font-family:Helvetica;font-size:13.2px;stroke:orange;stroke-width:0.8;">0</text>
  </g>
  <g>
   <rect x="250.0" y="492.0" width="22.0" height="22.0" style="fill:#000;"/>
   <text x="250.0" y="514.0" style="fill:orange;font-family:Helvetica;font-size:13.2px;stroke:orange;stroke-width:0.8;">1</text>
  </g>
  <g>
   <rect x="272.0" y="492.0" width="22.0" height="22.0" style="fill:#ffffff;"/>
   <text x="272.0" y="514.0" style="fill:orange;font-family:Helvetica;font-size:13.2px;stroke:orange;stroke-width:0.8;">0</text>
  </g>
  <g>
   <rect x="294.0" y="492.0" width="22.0" height="22.0" style="fill:#ffffff;"/>
   <text x="294.0" y="514.0" style="fill:orange;font-family:Helvetica;font-size:13.2px;stroke:orange;stroke-width:0.8;">0</text>
  </g>
  <g>
   <rect x="316.0" y="492.0" width="22.0" height="22.0" style="fill:#000;"/>
   <text x="316.0" y="514.0" style="fill:orange;font-family:Helvetica;font-size:13.2px;stroke:orange;stroke-width:0.8;">1</text>
  </g>
  <g>
   <rect x="338.0" y="492.0" width="22.0" height="22.0" style="fill:#ffffff;"/>
   <text x="338.0" y="514.0" style="fill:orange;font-family:Helvetica;font-size:13.2px;stroke:orange;stroke-width:0.8;">0</text>
  </g>
  <g>
   <rect x="360.0" y="492.0" width="22.0" height="22.0" style="fill:#ffffff;"/>
   <text x="360.0" y="514.0" style="fill:orange;font-family:Helvetica;font-size:13.2px;stroke:orange;stroke-width:0.8;">0</text>
  </g>
 </g>
</svg>
